<?xml version="1.0" encoding="utf-8"?>
<!-- Generator: Adobe Illustrator 19.2.0, SVG Export Plug-In . SVG Version: 6.00 Build 0)  -->
<svg version="1.1" id="Layer_1" xmlns="http://www.w3.org/2000/svg" xmlns:xlink="http://www.w3.org/1999/xlink" x="0px" y="0px"
	 viewBox="0 0 248 248" style="enable-background:new 0 0 248 248;" xml:space="preserve">
<style type="text/css">
	.st0{fill:#EFEFEF;}
	.st1{fill:#FFE4B0;}
	.st2{fill:#FFFFFF;}
	.st3{fill:#231F20;}
	.st4{fill:none;}
	.st5{fill:none;stroke:#010101;stroke-width:1.25;stroke-miterlimit:10;}
	.st6{fill:url(#SVGID_1_);}
	.st7{fill:#F8CF99;}
	.st8{fill:#010101;}
	.st9{clip-path:url(#XMLID_2_);fill:#FFFFFF;}
	.st10{fill:#8C56A3;}
	.st11{fill:#FFE3AF;}
	.st12{clip-path:url(#XMLID_3_);fill:#E6E7E8;}
	.st13{fill:#939598;}
</style>
<circle id="XMLID_33_" class="st0" cx="124" cy="123.9" r="123.9"/>
<path class="st1" d="M88.7,52.8c0,0,36.1,12.1,59.9-3.2c2.2,3.1,2.8,4.4,7.2,5.9c-0.1,4.1,1.6,25,4.2,31.4c-3.8,8.5-12,31.6-12,31.6
	s-5.4,3.4-8.5-1.8c-4.3-3.5-7-5.6-13.8-4.9c-1.3,2-1.3,2-1.3,2l-1.2-2.1c0,0-6.9-1.6-13,4.2c-2.4,2.5-3.2,4.3-6.1,3.5
	c-2.9-0.9-9.8-3.3-9.8-3.3s-3.9-1.1-4.8-3.6c-1.5-2.5-6.3-12.2-6.6-20.7S82.4,77,82.4,77s1.2,1.2,1.5-3.2
	C85,69.2,88.7,52.8,88.7,52.8z"/>
<path class="st2" d="M129.2,103"/>
<path class="st3" d="M81,76.9C81,76.9,81,76.9,81,76.9c-0.5-2.3-6.7-36.7-2.2-42.4c4.7-5.9,29.1-17.2,42.5-17.2
	c12.4,0,32.3,0.5,43.4,17.4c1.7,2.6,2.6,5.6,2.7,8.7c0.4,8.5,1,27-0.2,32.3c-1.6,6.8-6.8-16.4-6.6-21.8c0,0,0-0.1,0-0.1
	c-0.7-0.7-9.7-9.9-10.2-14.2c0-0.2-0.2-0.2-0.3-0.1c-2.2,2.2-18.5,16.9-61.1,13.2c-0.1,0-0.2,0-0.2,0.1c-0.5,2-5.5,24-5.5,24
	c0,0.1-0.2,0.5-0.3,0.5L81,76.9z"/>
<path class="st4" d="M85.5,51.7c0,0,0.6-20.3,13.8-20.6s54.4-0.3,55.6,0s10.6,20.6,10.6,20.6v46.9c0,0-0.8,10.2-2.5,20.8
	c-0.7,4.6-2.6,9.1-5.4,12.8c-16.9,23.1-30.1,22.2-43.3,19.2c-2.9-0.7-5.8-1.8-8.4-3.4c-22.1-13.5-22.5-38.6-23.3-48.9
	c-0.1-1.8-0.2-3.6-0.1-5.4C82.8,85,83.9,59.9,85.5,51.7z"/>
<path class="st5" d="M164.3,109.4"/>
<path class="st1" d="M81.9,76.8c-0.7-0.2-1.5-0.2-2.3,0.1c-1.9,0.8-5.5,2.8-5.6,6.8c0.4,5.2,2.5,16.2,8.7,18L82.4,77L81.9,76.8z"/>
<linearGradient id="SVGID_1_" gradientUnits="userSpaceOnUse" x1="115.339" y1="95.441" x2="132.3478" y2="95.441">
	<stop  offset="0" style="stop-color:#F6CB98"/>
	<stop  offset="0.3888" style="stop-color:#F6CB98"/>
	<stop  offset="1" style="stop-color:#F7CC90"/>
</linearGradient>
<path class="st6" d="M115.3,105l8.7,1l-0.4-24.7h6.4l2.3,24.7c0,0-3.2,3.1-5,3.3s-7,0-7,0L115.3,105z"/>
<path class="st7" d="M161.5,52.6c-4.2-4.6-10.5-9.2-11.1-13c-1.8,1.2-16,16.6-61.6,13.2c0,0,34.5,12.3,59.9-3.2c0,0,2.2,4.7,7.2,5.9
	c-0.6,3.1,1.1,23.9,4.2,31.4c-3.3,6.6-10.9,25.3-12,31.6"/>
<path class="st1" d="M166.6,76.7c0.7-0.2,1.5-0.2,2.3,0.1c1.9,0.8,5.5,2.8,5.6,6.8c-0.4,5.2-2.5,16.2-8.7,18l0.3-24.6L166.6,76.7z"
	/>
<path class="st1" d="M98.1,142.5l-0.9,30.7l26.7,20.7l25.5-20.3v-29.8C149.3,143.8,124.8,166.1,98.1,142.5z"/>
<path class="st8" d="M124.3,113.8l-1.2-2.1c-8.4-1.2-13.2,4.2-15.4,6.7c-0.7,0.8-1.7,1.2-2.7,1.2h0c0,0-5.8-1.4-12.5-4.2
	s-9.7-23.6-9.7-23.6S81.9,107,85.3,119c3.4,12,12.5,33.9,39,33.9"/>
<path class="st7" d="M109.7,150.3l17.7,14.9c3.2,2.7,7.4,3.7,11.4,2.8l10.6-2.3v-21.9C149.3,143.9,134.5,159.4,109.7,150.3z"/>
<path class="st7" d="M148,118.5c0,0,9.7-1.2,12.3-7.4c2.6-6.2,4.5-3.1,5.7-19.2c0.1-15,0.1-15,0.1-15s-0.6-0.3-1.3-2.6
	c-0.8-2.3-4-14.2-4.2-18c0.9-3.8,0.9-3.8,0.9-3.8"/>
<g>
	<defs>
		<path id="XMLID_30_" d="M119.7,229.1c-42.7,0.3-70-20.6-78.6-28.3c-1.8-1.6-2.5-4.2-1.7-6.6c0.9-2.7,2.5-7.1,5.1-13.3
			c0.1-0.3,0.2-0.6,0.4-0.8c7.4-11.8,50.5-24,50.5-24s0.9-0.2,0.8-1.2c-0.2-0.7-0.2-2.7-0.1-4.4c0-1.4,1.2-2.4,2.5-2.4h0
			c0,0-0.5,5.3,3.3,8.4l0,0c1.1,0.9,1.9,2.1,2.4,3.4l0.3,0.8c0.9,3,1.4,6.1,1.4,9.2l0,0c0,1.1,0.4,2.2,1.1,3l12.2,13.6
			c0.2,0.3,0.5,0.5,0.8,0.8l2.8,2.5l2.9-2.1c0.7-0.5,1.4-1.1,2-1.8l11.7-13c0.7-0.8,1.1-1.9,1.1-3l0,0c0-3.1,0.5-6.2,1.4-9.2
			l0.3-0.8c0.4-1.4,1.3-2.5,2.4-3.4l0,0c3.8-3.1,3.3-8.4,3.3-8.4l0,0c1.4,0,2.5,1.1,2.5,2.4c0.1,1.7,0.1,3.7-0.1,4.4
			c-0.2,1,0.8,1.2,0.8,1.2s43.1,12.3,50.5,24c0.2,0.3,0.3,0.5,0.4,0.8c2.6,6.2,4.2,10.5,5.1,13.3c0.8,2.3,0.1,4.9-1.7,6.6
			c-8.6,7.7-35.8,28.6-78.6,28.3"/>
	</defs>
	<use xlink:href="#XMLID_30_"  style="overflow:visible;fill:#8C56A3;"/>
	<clipPath id="XMLID_2_">
		<use xlink:href="#XMLID_30_"  style="overflow:visible;"/>
	</clipPath>
	<rect x="152.7" y="210.6" class="st9" width="25.6" height="16.7"/>
</g>
<rect x="115.4" y="189.9" class="st10" width="14.8" height="39.3"/>
<line class="st4" x1="106.1" y1="205.4" x2="113.3" y2="205.4"/>
<path class="st8" d="M142.7,184.5l2.1-7.5c0,0,0.7-1.7,2.2,1.5c1.5,3.1,1.8,4.2,1.8,4.2l1.4-2.1l1.1-7.6l-1.5,7.2l-4.8-10.1
	L142.7,184.5z"/>
<path class="st8" d="M103.5,184.5l-2.1-7.5c0,0-0.7-1.7-2.2,1.5c-1.5,3.1-1.8,4.2-1.8,4.2l-1.4-2.1l-1.1-7.6l1.5,7.2l4.8-10.1
	L103.5,184.5z"/>
<circle class="st8" cx="122.8" cy="197.5" r="2.3"/>
<circle class="st8" cx="122.8" cy="209.6" r="2.3"/>
<circle class="st8" cx="110.4" cy="196.8" r="2.3"/>
<path class="st8" d="M124.3,113.8l1.3-2c8.4-1.2,13.3,4.2,15.5,6.7c0.7,0.8,1.7,1.2,2.7,1.2h0c0,0,5.8-1.4,12.5-4.2
	s9.7-23.6,9.7-23.6s0.9,15.1-2.6,27.1s-12.5,33.9-39.1,33.9"/>
<path class="st11" d="M121.1,122.5v5.2h5.5v-5.2c0,0,8.4-0.9,8.5,6c0.1,6.9-2.1,9.8-9,9.8c-5.3,0-14.1,1.1-14.1-7.9
	S121.1,122.5,121.1,122.5z"/>
<rect x="151.2" y="207.3" class="st8" width="29.3" height="3.4"/>
<g>
	<g>
		<defs>
			<path id="XMLID_40_" d="M124.6,75.1h-6.6c-0.6,0-1.2-0.3-1.5-0.8h0c-0.9-1.4-2.5-2.3-4.3-2.3H82.7c-1.2,0-2.2,0.9-2.4,2
				c-1,5.1-2.1,18.3,10.9,20.9l17.1,3.9c1,0.2,2,0.3,3,0c1.5-0.3,3.5-1.2,5.2-3.5c0.7-1,1.2-2.2,1.4-3.4c0.6-3.3,2.5-11.4,6.7-11.4
				c4.9,0,6.3,3,6.8,10.5c0.2,2.5,1.3,4.8,3.2,6.3c1.2,0.9,2.3,1.3,3.3,1.5c1,0.2,2,0.2,3,0l17.1-3.9c13-2.6,11.9-15.8,10.9-20.9
				c-0.2-1.2-1.2-2-2.4-2h-29.5c-1.7,0-3.3,0.9-4.3,2.3l0,0c-0.3,0.5-0.9,0.8-1.5,0.8H124.6"/>
		</defs>
		<use xlink:href="#XMLID_40_"  style="overflow:visible;fill:#C2B59B;"/>
		<clipPath id="XMLID_3_">
			<use xlink:href="#XMLID_40_"  style="overflow:visible;"/>
		</clipPath>
		<polygon class="st12" points="133.6,96.8 178,71.1 188.5,117.5 140.7,133.3 		"/>
		<rect x="125.7" y="85" transform="matrix(0.866 -0.5 0.5 0.866 -22.7224 86.2891)" class="st12" width="47.8" height="1.1"/>
	</g>
	<path class="st13" d="M124.6,85.6"/>
	<path class="st13" d="M124.6,85.6"/>
</g>
</svg>
