<?xml version="1.0" encoding="utf-8"?>
<!-- Generator: Adobe Illustrator 19.2.0, SVG Export Plug-In . SVG Version: 6.00 Build 0)  -->
<svg version="1.1" id="Layer_1" xmlns="http://www.w3.org/2000/svg" xmlns:xlink="http://www.w3.org/1999/xlink" x="0px" y="0px"
	 viewBox="0 0 289 97" style="enable-background:new 0 0 289 97;" xml:space="preserve">
<style type="text/css">
	.st0{fill:#7F3F98;stroke:#000000;stroke-width:2;stroke-miterlimit:10;}
	.st1{fill:#C7C6C6;}
	.st2{fill:#646464;}
	.st3{stroke:#000000;stroke-width:2;stroke-miterlimit:10;}
	.st4{fill:#A7A9AC;stroke:#000000;stroke-width:2;stroke-miterlimit:10;}
	.st5{fill:none;stroke:#000000;stroke-width:2;stroke-miterlimit:10;}
	.st6{fill:#6E0E15;}
	.st7{opacity:0.19;}
	.st8{fill:#D1D2D4;stroke:#000000;stroke-width:2;stroke-miterlimit:10;}
	.st9{fill:none;stroke:#000000;stroke-width:1.3;stroke-miterlimit:10;}
</style>
<path class="st0" d="M54,20L16.9,32.5c-1,0.4-2.2,0.9-3.6,1.6l-4.7,2.4c-0.6,0.3-1,0.8-1.2,1.5L1.7,60.7c-0.1,0.4,0,0.8,0.3,1.1
	C2,61.9,2.1,62,2.1,62.1C2.3,62.5,2.2,63,2,63.4c-0.3,0.6-0.6,1.2-0.8,1.6C1,65.4,1,66,1.4,66.5l1.3,1.4c6,6.2,13.6,10.5,22,12.5
	l10,2.3c0.8,0.3,1.3,0,1.1-0.9c0,0-5.5-32.4,25.8-33.2c0,0,0.1,0,0.1,0c2.6,0.2,27.6-1.4,25.7,32.9c0,0.4,0.3,0.8,0.7,0.8
	c6.8,0.1,54.7,0.1,54.7,0.1l76.9-0.3c0.4,0,0.8-0.3,0.7-0.8c-0.1-2.5-0.1-11,3.5-18.3c3-6,8.7-10.2,15.2-11.6
	c3.7-0.8,8.4-1.2,13.9,0.3c7,2.3,11.7,5.6,14.7,13.7c0.5,1.3,0.8,2.8,0.9,4.2c0.5,6.3,0.7,9.7,0.7,11.1c0,0.4,0.3,0.7,0.7,0.7
	c2.4,0,10.8-0.1,16-1.1c2.8-0.5,3.5-4.1,1.2-5.7c-0.4-0.3-0.8-0.5-1-0.6c-0.2-0.1-0.4-0.4-0.4-0.7l0.4-8c0-0.3,0.2-0.5,0.5-0.6l0,0
	c0.3-0.1,0.5-0.5,0.4-0.8c-0.6-2.6-3.3-13-8-16.2c-5.5-3.7-16-6.6-27-8.7L219,33.8c0,0-3.8-0.6-5.8-0.3c-1,0.2-2,0-3-0.5
	c-5.1-2.6-17.4-11.7-43.4-19.9C166.8,13.2,131.9-0.3,54,20z"/>
<path d="M62.6,97c-11.8,0-21.3-9.6-21.3-21.3s9.6-21.3,21.3-21.3s21.3,9.6,21.3,21.3S74.3,97,62.6,97"/>
<circle class="st1" cx="62.6" cy="75.7" r="6.2"/>
<rect x="60" y="58.4" transform="matrix(0.9987 5.021887e-02 -5.021887e-02 0.9987 3.3142 -3.0772)" class="st1" width="5.8" height="12"/>
<rect x="49.3" y="66.2" transform="matrix(-0.2694 0.963 -0.963 -0.2694 136.0233 41.6663)" class="st1" width="5.8" height="12.4"/>
<rect x="53.1" y="78" transform="matrix(0.7854 0.6189 -0.6189 0.7854 64.1167 -16.5837)" class="st1" width="5.8" height="12.4"/>
<rect x="65.8" y="77.5" transform="matrix(-0.7854 0.6189 -0.6189 -0.7854 174.5049 106.8855)" class="st1" width="5.8" height="12.4"/>
<rect x="70.6" y="66.2" transform="matrix(0.3007 0.9537 -0.9537 0.3007 120.497 -19.4784)" class="st1" width="5.8" height="12.4"/>
<g id="XMLID_9_">
	<g>
		<path class="st2" d="M62.6,57.4c10.2,0,18.5,8.3,18.5,18.5s-8.3,18.5-18.5,18.5s-18.5-8.3-18.5-18.5S52.4,57.4,62.6,57.4z
			 M78.4,75.5c0-9-7.3-16.3-16.3-16.3c-9,0-16.3,7.3-16.3,16.3c0,9,7.3,16.3,16.3,16.3C71.1,91.7,78.4,84.4,78.4,75.5z"/>
	</g>
	<g>
	</g>
</g>
<circle class="st3" cx="62.6" cy="75.9" r="2.6"/>
<circle class="st3" cx="62.4" cy="71.7" r="0.7"/>
<circle class="st3" cx="66.7" cy="75.9" r="0.7"/>
<circle class="st3" cx="62.6" cy="79.8" r="0.7"/>
<circle class="st3" cx="58.6" cy="75.9" r="0.7"/>
<path d="M246.2,97.3c-11.8,0-21.3-9.6-21.3-21.3s9.6-21.3,21.3-21.3s21.3,9.6,21.3,21.3S257.9,97.3,246.2,97.3"/>
<circle class="st1" cx="246.2" cy="75.9" r="6.2"/>
<rect x="243.6" y="58.7" transform="matrix(0.9987 5.021887e-02 -5.021887e-02 0.9987 3.5589 -12.2973)" class="st1" width="5.8" height="12"/>
<rect x="232.9" y="66.5" transform="matrix(-0.2694 0.963 -0.963 -0.2694 369.3429 -134.8206)" class="st1" width="5.8" height="12.4"/>
<rect x="236.7" y="78.2" transform="matrix(0.7854 0.6189 -0.6189 0.7854 103.6705 -130.166)" class="st1" width="5.8" height="12.4"/>
<rect x="249.4" y="77.7" transform="matrix(-0.7854 0.6189 -0.6189 -0.7854 502.4846 -6.2877)" class="st1" width="5.8" height="12.4"/>
<rect x="254.2" y="66.5" transform="matrix(0.3007 0.9537 -0.9537 0.3007 249.1383 -194.4036)" class="st1" width="5.8" height="12.4"/>
<g id="XMLID_8_">
	<g>
		<path class="st2" d="M246.2,57.7c10.2,0,18.5,8.3,18.5,18.5s-8.3,18.5-18.5,18.5c-10.2,0-18.5-8.3-18.5-18.5S236,57.7,246.2,57.7z
			 M262,75.7c0-9-7.3-16.3-16.3-16.3c-9,0-16.3,7.3-16.3,16.3c0,9,7.3,16.3,16.3,16.3C254.7,92,262,84.7,262,75.7z"/>
	</g>
	<g>
	</g>
</g>
<circle class="st3" cx="246.2" cy="76.2" r="2.6"/>
<circle class="st3" cx="246" cy="72" r="0.7"/>
<circle class="st3" cx="250.3" cy="76.2" r="0.7"/>
<circle class="st3" cx="246.2" cy="80" r="0.7"/>
<circle class="st3" cx="242.2" cy="76.2" r="0.7"/>
<path class="st4" d="M84.9,30.9c-0.7,0-1.4-0.1-2.1-0.2c-5.5-0.9-29.1-5-21.1-7.6c5.8-2,26.5-6.7,30.8-7.7c0.5-0.1,1.1-0.2,1.6-0.3
	c5.6-0.7,38.6-4.7,56.6-1.8c0.3,0,0.6,0.1,0.9,0.2c18.8,4.5,39.8,13.3,39.8,13.3v8.1L84.9,30.9z"/>
<polygon class="st3" points="96.1,14.9 85.6,30.9 82.8,30.7 93.6,15.2 "/>
<g id="XMLID_7_">
	<g>
		<polygon points="127.3,12.4 136.2,12.4 144.8,33.1 130.5,32.6 		"/>
	</g>
	<g>
		<polyline class="st5" points="136.2,12.4 144.8,33.1 130.5,32.6 127.3,12.4 		"/>
	</g>
</g>
<path class="st5" d="M202.1,34.5c0,0,5.5,0.4,7,4.1c1.4,3.3,2.4,11.4,2.4,20.8c0,1.8-0.1,3.5-0.3,5.3c-0.6,6.1-1,10-1.2,11.9
	c-0.1,0.9-0.8,1.5-1.7,1.5h-10.6l-95.1-1.7c-1.5,0-3-0.5-4.3-1.4c-0.9-0.7-2-1.7-2.9-3.2c-2-3.2-14.2-24.4-18.3-31.5
	c-1-1.8-1.2-4-0.5-5.9c0.7-1.7,1.8-3.5,3.8-4.1"/>
<path class="st5" d="M137.7,32.8c0,0,9.2,24.3,3.7,44.2"/>
<path class="st3" d="M282,50.3c0,0-8-0.8-9.9-1.7c-1.5-0.7,3.5,5.5,5.4,7.9c0.5,0.6,1.1,0.9,1.9,0.9c1.8,0,5.1-0.1,5.5-1.5"/>
<polyline class="st3" points="286.9,64.5 278.2,64.4 274.5,76.2 286.5,73.8 "/>
<path class="st6" d="M3.1,62.9l9.1,1.7c0.3,0.1,0.6-0.2,0.6-0.6c-0.1-1.2-0.1-1.3-0.2-2.7c0-0.2-0.2-0.4-0.4-0.4l-9-1.8L2.7,61
	L3.1,62.9z"/>
<g>
	<path class="st7" d="M143.9,40.6c0,0,0.4,2.7,5.2,3.1c0,0,7.7,0.6,8-3.1"/>
	<path class="st7" d="M143.9,40.4c0,0,0.4-2.7,5.2-3.1c0,0,7.7-0.6,8,3.1"/>
</g>
<g>
	<path class="st7" d="M84.2,40.6c0,0,0.4,2.7,5.2,3.1c0,0,7.7,0.6,8-3.1"/>
	<path class="st7" d="M84.2,40.5c0,0,0.4-2.7,5.2-3.1c0,0,7.7-0.6,8,3.1"/>
</g>
<path class="st8" d="M202.8,33.5c0-0.1,0-0.2,0-0.3c-0.1-0.5-0.2-0.8-0.3-1.2c-0.3-0.7-3.5-5.5-11-5.2c-1.6,0.4-1.7,4.6-1.7,4.6
	s-0.4,3.1,2.2,3.5c2,0.2,7.5-0.1,10.1-0.3C202.6,34.4,202.8,33.9,202.8,33.5z"/>
<rect x="84.2" y="39.9" width="13.2" height="1.6"/>
<rect x="143.9" y="39.8" width="13.2" height="1.6"/>
<path class="st9" d="M213.2,33.6l63.8-33c1.2-0.6,2.7-0.2,3.3,1c0.2,0.5,0.4,1,0.5,1.7"/>
</svg>
