<?xml version="1.0" encoding="utf-8"?>
<!-- Generator: Adobe Illustrator 19.2.0, SVG Export Plug-In . SVG Version: 6.00 Build 0)  -->
<svg version="1.1" id="Layer_1" xmlns="http://www.w3.org/2000/svg" xmlns:xlink="http://www.w3.org/1999/xlink" x="0px" y="0px"
	 viewBox="0 0 295 366" style="enable-background:new 0 0 295 366;" xml:space="preserve">
<style type="text/css">
	.st0{fill:#FFFFFF;}
	.st1{fill:#3A3A3C;}
	.st2{fill:#6D6D6D;}
	.st3{fill:#D1D2D4;}
	.st4{fill:#B7364D;}
	.st5{fill:#6E0E15;}
</style>
<g>
	<path class="st0" d="M208.1,158.4"/>
	<path class="st0" d="M252.3,233.9"/>
	<path class="st0" d="M153.8,297.7"/>
	<path class="st0" d="M174.4,110.3"/>
	<line class="st0" x1="195.9" y1="169.5" x2="220.9" y2="208.3"/>
	<path class="st0" d="M6,80.9"/>
	<path class="st0" d="M71,164.8"/>
	<path class="st0" d="M6.8,62.6"/>
	<path class="st0" d="M46.1,18.6c0,0-3.2,2.1-4,2.6c-0.1,0,0,0.1,0.1,0.3c0.2,0.2,0.1,0.5-0.1,0.7l-2.7,1.8
		c-0.5,0.3-0.6,0.9-0.3,1.4l0.3,0.4c0.4,0.7,0.2,1.5-0.4,2c0,0-13.3,9.1-18.7,12.6c-0.1,0.1-0.3-0.2-0.5-0.6
		c-0.1-0.2-0.4-0.3-0.6-0.2l-1.9,1.4c-0.2,0.1-0.3,0.3-0.4,0.5L15.7,45c-0.2,0.8-0.7,1.4-1.4,1.9l-3.2,2.1c-0.6,0.4-1,0.9-1.3,1.5
		L3.9,65c-2.3,5.8-2.5,12.2-0.6,18.1c0.2,0.5,0.3,1,0.5,1.4c1.8,5.4,4.2,10.6,7.2,15.4c6.1,9.7,16.7,26.8,20.2,32.5
		c0.8,1.2,1.8,2.3,2.9,3.1l0,0c0.3,0.2,0.5,0.4,0.7,0.7l117.7,184.4c4,5.7,8.6,11.3,13.1,16.1l23.2,22.4c0,0,6.6,7.4,23,4
		c4.1-0.8,10.4-3.3,14-5.3c18.7-10.2,26.8-16,26.8-16l-0.4,0.2c0,0,8.5-5.1,25.5-17.9c3.3-2.5,8.1-7.3,10.6-10.7
		c9.8-13.6,5.8-22.7,5.8-22.7l-10.8-30.5c-2.4-6.2-5.7-12.6-9.2-18.6l-119-183.6c-0.2-0.3-0.3-0.6-0.4-0.9v0c-0.3-1.4-0.8-2.8-1.6-4
		c-3.7-5.5-14.8-22.3-21.1-31.9c-3.1-4.7-6.8-9.1-11-12.9c-0.4-0.3-0.7-0.7-1.1-1c-4.6-4.2-10.5-6.6-16.7-6.9L87.6,0
		c-0.7,0-1.3,0.2-1.9,0.5l-3.2,2.1C81.8,3,81,3.2,80.2,3.1l-3.6-0.4c-0.2,0-0.5,0-0.7,0.1l-2,1.2c-0.2,0.1-0.3,0.5-0.1,0.7
		c0.2,0.3,0.5,0.6,0.3,0.7c-5.4,3.5-19.1,11.9-19.1,11.9c-0.7,0.4-1.5,0.2-1.9-0.4l-0.3-0.4c-0.3-0.5-0.9-0.6-1.4-0.3l-2.7,1.8
		c-0.2,0.1-0.5,0.1-0.6-0.2c-0.1-0.1-0.1-0.2-0.2-0.2c-0.8,0.5-4,2.6-4,2.6"/>
	<path class="st0" d="M145,175.9"/>
	<path d="M145.4,175.7l-25.5,16.6c0,0-3.9,2.5-1,7.4c3,5,14.9,23.2,14.9,23.2s1.6,3.3,6.2,0.4c4.6-2.9,25.4-16.5,25.4-16.5l-0.4,0.2
		"/>
	<path class="st1" d="M144.1,176.5l25.5-16.6c0,0,3.9-2.5,7.2,2.1c3.2,4.8,14.9,23.2,14.9,23.2s2.4,2.9-2.2,5.9
		c-4.5,3-25.4,16.5-25.4,16.5l0.4-0.2"/>
	<path class="st2" d="M174.4,110.3l16.8,49.2c1.2,3.5,2.8,6.8,4.8,9.9l25,38.8c3,4.6,6.9,8.5,11.5,11.4l25.2,13.1l2.1,1.1
		l-79.5-123.6c0,0-11.4-16.3-11.4-16.3"/>
	<path d="M196.6,248.5c2,3.1,2.2,6.5,0.5,7.6c-1.7,1.1-4.8-0.5-6.8-3.6c-2-3.1-2.2-6.5-0.5-7.6C191.6,243.8,194.7,245.4,196.6,248.5
		z"/>
	<path class="st3" d="M190.9,97.6c-0.2-0.1-0.4-0.2-0.7-0.2c-7.5-2-11.4-0.7-12.8-0.1c-0.5,0.2-1,0.3-1.6,0.3l-5.1-0.5l-2.1-3
		l5.7,16.4l1.4-4.7l3.3-1.2c0.5-0.2,1.1-0.1,1.6,0.1c4,2,14,0.3,16.8-0.7C198.8,103,193.8,98.8,190.9,97.6z"/>
	<path class="st1" d="M205.1,269.3c0,0,30.1-20,34.4-27.4c0.3-0.6,1.1-0.7,1.6-0.2c6.3,7.9,31.7,34.1,21.5,44.5
		c0,0-7.7,10.1-30.3,25.2"/>
	<path class="st1" d="M104.8,110.2l32.9,52.6c0,0,30.2-18.9,38-19.3l-15.2-44.6c0,0-3.6-7.7-6.9-9c-3.3-1.3-4.2-3.4-18,2.9"/>
	<path d="M104.8,110.2l34.3,51.6c0,0-29.6,19.8-33.2,26.9l-34.3-32.3c0,0-5.5-6.5-5.3-10c0.2-3.6,0.8-5.9,10.9-14.7"/>
	<path d="M12.3,93.9c0,0-0.9-25.4,2.8-34.6c2.6-6.3,2.1-5.7,2.1-5.7l-1.6-2.5L8.9,64.8c0,0-4.2,9.7-2.4,14.7
		C8.1,85.1,12.3,93.9,12.3,93.9z"/>
	<path d="M125.6,20.4c0,0-22.7-11.3-32.6-11.7c-6.8-0.2-6-0.4-6-0.4l-1.6-2.5l15.1-0.5c0,0,10.6,0.1,14.3,3.8
		C119.3,13,125.6,20.4,125.6,20.4z"/>
	<path d="M113.5,82.9c0.6,1,0.4,2.3-0.6,2.9s-2.3,0.4-2.9-0.6c-0.6-1-0.4-2.3,0.6-2.9C111.5,81.6,112.9,81.9,113.5,82.9z"/>
	<path d="M73.9,108.6c0.6,1,1.9,1.3,2.9,0.6s1.3-2,0.6-2.9c-0.6-1-1.9-1.3-2.9-0.6C73.5,106.3,73.2,107.6,73.9,108.6z"/>
	<polyline points="135.1,284.5 133.5,285.6 139,294.1 140.6,293.1 143,296.8 139.9,298.8 129.4,282.6 132.5,280.6 135.1,284.5 	"/>
	<path d="M59.8,162.8l52.1,48.8c2.7,2.5,5,5.4,7,8.5l25,38.8c3,4.6,4.9,9.8,5.6,15.2l1.6,28.4l0.1,2.3L71.7,181.2
		C71.7,181.2,59.8,162.8,59.8,162.8"/>
	<path class="st4" d="M284.8,306.9l1.3,2.1c0.1,0.1,0,0.2,0,0.3l-9.3,9.8c-0.2,0.2-0.5,0-0.3-0.3l8-11.8
		C284.5,306.7,284.7,306.7,284.8,306.9z"/>
	<path class="st5" d="M285.9,305.3l1.3,2c0,0,3-4.2,4.5-8c0,0,1.3-3-0.7-7.8c-2-4.8-2.8-4.9-2.8-4.9s2.5,7.3,2,9.2
		C289.6,297.7,285.9,305.3,285.9,305.3z"/>
	<path class="st4" d="M206.7,357.5l1.3,2.1c0.1,0.1,0.2,0.1,0.2,0.1l12.7-4.5c0.2-0.1,0.2-0.4-0.1-0.4l-14,2.4
		C206.7,357.2,206.7,357.3,206.7,357.5z"/>
	<path class="st5" d="M204.9,357.8l1.3,2c0,0-5,1-9.2,0.8c0,0-3.3,0-6.8-3.9c-3.6-3.8-3.3-4.6-3.3-4.6s5.6,5.3,7.5,5.6
		C196.4,358.1,204.9,357.8,204.9,357.8z"/>
	<path d="M54.9,19.1"/>
	<path d="M38.9,29.5"/>
	<path class="st3" d="M73.6,175.7l-6.9-6.7l-3.4-3l-3.5-3.3l1.4,9.8c0,0-3.3,1.7-5.2,9.2c-0.7,2.6-0.7,5.3-0.1,7.9
		c0.6,2.6,1.6,4.9,2.4,4.4c2.2-2.3,8.5-11.8,7.4-15.9l3.2-3.2L73.6,175.7z"/>
	<polyline points="248.1,211.3 245.5,207.3 248.6,205.3 259.1,221.6 256,223.6 253.6,219.9 255.1,218.9 249.6,210.3 248.1,211.3 	
		"/>
	<path d="M232.5,311.2c-23,14.5-35.4,17.4-35.4,17.4c-13.6,5.1-27-29-31.6-38c-0.3-0.6,0.1-1.3,0.8-1.4c8.5-0.9,39-20.2,39-20.2"/>
</g>
</svg>
