<?xml version="1.0" encoding="utf-8"?>
<!-- Generator: Adobe Illustrator 19.2.0, SVG Export Plug-In . SVG Version: 6.00 Build 0)  -->
<svg version="1.1" id="Layer_1" xmlns="http://www.w3.org/2000/svg" xmlns:xlink="http://www.w3.org/1999/xlink" x="0px" y="0px"
	 viewBox="0 0 188 551" style="enable-background:new 0 0 188 551;" xml:space="preserve">
<style type="text/css">
	.st0{fill:#3A3A3C;stroke:#909091;stroke-width:1.2;stroke-miterlimit:10;}
	.st1{opacity:0.16;fill:#3A3A3C;stroke:#909091;stroke-width:1.2;stroke-miterlimit:10;}
	.st2{opacity:0.1;fill:#3A3A3C;stroke:#909091;stroke-width:1.2;stroke-miterlimit:10;}
	.st3{opacity:0.12;fill:#3A3A3C;stroke:#909091;stroke-width:1.2;stroke-miterlimit:10;}
	.st4{opacity:0.48;}
	.st5{fill:#FFFFFF;}
	.st6{fill:#3A3A3C;}
	.st7{fill:#6D6D6D;}
	.st8{fill:#D1D2D4;}
	.st9{fill:#B7364D;}
	.st10{fill:#6E0E15;}
</style>
<path class="st0" d="M160.8,362.2"/>
<g>
	<line class="st1" x1="42.1" y1="348.4" x2="46.6" y2="342.2"/>
	<line class="st1" x1="47.2" y1="344.3" x2="52" y2="348.4"/>
	<line class="st1" x1="41.7" y1="353.7" x2="46.2" y2="347.4"/>
	<line class="st1" x1="46.9" y1="349.5" x2="51.7" y2="353.7"/>
	<line class="st1" x1="42" y1="359" x2="46.4" y2="352.7"/>
	<line class="st1" x1="47.1" y1="354.8" x2="51.9" y2="359"/>
	<line class="st1" x1="42.2" y1="364.2" x2="46.7" y2="357.9"/>
	<line class="st1" x1="41.9" y1="369.5" x2="46.4" y2="363.2"/>
	<line class="st1" x1="47" y1="365.3" x2="51.9" y2="369.5"/>
	<line class="st1" x1="42.1" y1="374.7" x2="46.6" y2="368.5"/>
	<line class="st1" x1="47.3" y1="370.6" x2="52.1" y2="374.8"/>
	<line class="st1" x1="42.6" y1="379.3" x2="47.1" y2="373"/>
	<line class="st1" x1="47.7" y1="375.1" x2="52.5" y2="379.3"/>
	<line class="st1" x1="42.3" y1="384.5" x2="46.7" y2="378.3"/>
	<line class="st1" x1="47.4" y1="380.4" x2="52.2" y2="384.6"/>
	<line class="st1" x1="42.5" y1="389.8" x2="47" y2="383.6"/>
	<line class="st1" x1="47.6" y1="385.7" x2="52.4" y2="389.8"/>
	<line class="st1" x1="42.2" y1="395" x2="46.6" y2="388.8"/>
	<line class="st1" x1="47.3" y1="390.9" x2="52.1" y2="395"/>
	<line class="st1" x1="41.8" y1="400.3" x2="46.3" y2="394.1"/>
	<line class="st1" x1="47" y1="396.1" x2="51.8" y2="400.3"/>
	<line class="st1" x1="42.1" y1="405.6" x2="46.5" y2="399.3"/>
	<line class="st1" x1="47.2" y1="401.4" x2="52" y2="405.6"/>
	<line class="st1" x1="42.2" y1="410" x2="46.7" y2="403.8"/>
	<line class="st1" x1="47.3" y1="405.9" x2="52.1" y2="410.1"/>
	<line class="st1" x1="41.8" y1="415.3" x2="46.3" y2="409.1"/>
	<line class="st1" x1="47" y1="411.2" x2="51.8" y2="415.4"/>
	<line class="st1" x1="42.1" y1="420.6" x2="46.6" y2="414.4"/>
	<line class="st1" x1="47.2" y1="416.5" x2="52" y2="420.6"/>
	<line class="st1" x1="42" y1="425" x2="46.5" y2="418.7"/>
	<line class="st1" x1="47.1" y1="420.8" x2="52" y2="425"/>
	<line class="st1" x1="41.7" y1="430.3" x2="46.2" y2="424"/>
	<line class="st1" x1="46.8" y1="426.1" x2="51.6" y2="430.3"/>
	<line class="st1" x1="41.9" y1="435.5" x2="46.4" y2="429.3"/>
	<line class="st1" x1="47" y1="431.4" x2="51.9" y2="435.6"/>
	<line class="st1" x1="41.6" y1="440.5" x2="46" y2="434.2"/>
	<line class="st1" x1="46.7" y1="436.3" x2="51.5" y2="440.5"/>
	<line class="st1" x1="41.2" y1="445.7" x2="45.7" y2="439.5"/>
	<line class="st1" x1="46.4" y1="441.6" x2="51.2" y2="445.8"/>
	<line class="st1" x1="41.5" y1="451" x2="45.9" y2="444.8"/>
	<line class="st1" x1="46.6" y1="446.9" x2="51.4" y2="451"/>
	<line class="st1" x1="41.4" y1="456.3" x2="45.9" y2="450.1"/>
	<line class="st1" x1="46.6" y1="452.2" x2="51.4" y2="456.3"/>
	<line class="st1" x1="41.1" y1="461.6" x2="45.6" y2="455.4"/>
	<line class="st1" x1="46.2" y1="457.4" x2="51.1" y2="461.6"/>
	<line class="st1" x1="41.3" y1="466.9" x2="45.8" y2="460.6"/>
	<line class="st1" x1="46.5" y1="462.7" x2="51.3" y2="466.9"/>
	<line class="st2" x1="41.7" y1="471.5" x2="46.2" y2="465.3"/>
	<line class="st2" x1="46.8" y1="467.4" x2="51.7" y2="471.5"/>
	<line class="st2" x1="41.4" y1="476.8" x2="45.9" y2="470.5"/>
	<line class="st2" x1="46.5" y1="472.6" x2="51.3" y2="476.8"/>
	<line class="st2" x1="41.6" y1="482" x2="46.1" y2="475.8"/>
	<line class="st2" x1="46.7" y1="477.9" x2="51.6" y2="482.1"/>
	<line class="st2" x1="41.2" y1="487.5" x2="45.7" y2="481.2"/>
	<line class="st2" x1="46.3" y1="483.3" x2="51.1" y2="487.5"/>
	<line class="st2" x1="40.9" y1="492.7" x2="45.3" y2="486.5"/>
	<line class="st2" x1="46" y1="488.6" x2="50.8" y2="492.8"/>
	<line class="st2" x1="41.1" y1="498" x2="45.6" y2="491.8"/>
	<line class="st2" x1="46.2" y1="493.9" x2="51" y2="498"/>
	<line class="st3" x1="40.4" y1="504.5" x2="44.9" y2="498.3"/>
	<line class="st3" x1="45.6" y1="500.4" x2="50.4" y2="504.5"/>
	<line class="st3" x1="40.1" y1="509.8" x2="44.6" y2="503.6"/>
	<line class="st3" x1="45.2" y1="505.6" x2="50.1" y2="509.8"/>
	<line class="st3" x1="40.3" y1="515.1" x2="44.8" y2="508.8"/>
	<line class="st3" x1="45.5" y1="510.9" x2="50.3" y2="515.1"/>
	<line class="st3" x1="40.2" y1="521.8" x2="44.7" y2="515.6"/>
	<line class="st3" x1="45.3" y1="517.7" x2="50.1" y2="521.9"/>
	<line class="st2" x1="40.4" y1="526.4" x2="44.9" y2="520.2"/>
	<line class="st2" x1="45.6" y1="522.3" x2="50.4" y2="526.4"/>
	<line class="st2" x1="40.7" y1="531.7" x2="45.1" y2="525.5"/>
	<line class="st2" x1="45.8" y1="527.5" x2="50.6" y2="531.7"/>
	<line class="st3" x1="40" y1="538.2" x2="44.5" y2="532"/>
	<line class="st3" x1="45.1" y1="534" x2="50" y2="538.2"/>
	<line class="st3" x1="39.7" y1="543.5" x2="44.2" y2="537.2"/>
	<line class="st3" x1="44.8" y1="539.3" x2="49.7" y2="543.5"/>
	<line class="st3" x1="39.9" y1="548.7" x2="44.4" y2="542.5"/>
	<line class="st3" x1="45" y1="544.6" x2="49.9" y2="548.8"/>
</g>
<g>
	<line class="st1" x1="150.9" y1="350.1" x2="155.4" y2="343.9"/>
	<line class="st1" x1="156" y1="346" x2="160.9" y2="350.2"/>
	<line class="st1" x1="150.6" y1="355.4" x2="155.1" y2="349.2"/>
	<line class="st1" x1="155.7" y1="351.3" x2="160.6" y2="355.4"/>
	<line class="st1" x1="150.8" y1="360.7" x2="155.3" y2="354.4"/>
	<line class="st1" x1="155.9" y1="356.5" x2="160.8" y2="360.7"/>
	<line class="st1" x1="151.1" y1="365.9" x2="155.6" y2="359.7"/>
	<line class="st1" x1="150.8" y1="371.2" x2="155.3" y2="364.9"/>
	<line class="st1" x1="155.9" y1="367" x2="160.7" y2="371.2"/>
	<line class="st1" x1="151" y1="376.4" x2="155.5" y2="370.2"/>
	<line class="st1" x1="156.1" y1="372.3" x2="161" y2="376.5"/>
	<line class="st1" x1="151.4" y1="381" x2="155.9" y2="374.7"/>
	<line class="st1" x1="156.6" y1="376.8" x2="161.4" y2="381"/>
	<line class="st1" x1="151.1" y1="386.2" x2="155.6" y2="380"/>
	<line class="st1" x1="156.2" y1="382.1" x2="161.1" y2="386.3"/>
	<line class="st1" x1="151.3" y1="391.5" x2="155.8" y2="385.3"/>
	<line class="st1" x1="156.5" y1="387.4" x2="161.3" y2="391.6"/>
	<line class="st1" x1="151" y1="396.7" x2="155.5" y2="390.5"/>
	<line class="st1" x1="156.1" y1="392.6" x2="161" y2="396.8"/>
	<line class="st1" x1="150.7" y1="402" x2="155.2" y2="395.8"/>
	<line class="st1" x1="155.8" y1="397.9" x2="160.7" y2="402"/>
	<line class="st1" x1="150.9" y1="407.3" x2="155.4" y2="401.1"/>
	<line class="st1" x1="156" y1="403.1" x2="160.9" y2="407.3"/>
	<line class="st1" x1="151" y1="411.8" x2="155.5" y2="405.5"/>
	<line class="st1" x1="156.1" y1="407.6" x2="161" y2="411.8"/>
	<line class="st1" x1="150.7" y1="417" x2="155.2" y2="410.8"/>
	<line class="st1" x1="155.8" y1="412.9" x2="160.7" y2="417.1"/>
	<line class="st1" x1="150.9" y1="422.3" x2="155.4" y2="416.1"/>
	<line class="st1" x1="156" y1="418.2" x2="160.9" y2="422.4"/>
	<line class="st1" x1="150.9" y1="426.7" x2="155.3" y2="420.5"/>
	<line class="st1" x1="156" y1="422.6" x2="160.8" y2="426.7"/>
	<line class="st1" x1="150.5" y1="432" x2="155" y2="425.7"/>
	<line class="st1" x1="155.7" y1="427.8" x2="160.5" y2="432"/>
	<line class="st1" x1="150.8" y1="437.3" x2="155.2" y2="431"/>
	<line class="st1" x1="155.9" y1="433.1" x2="160.7" y2="437.3"/>
	<line class="st1" x1="150.4" y1="442.2" x2="154.9" y2="435.9"/>
	<line class="st1" x1="155.5" y1="438" x2="160.4" y2="442.2"/>
	<line class="st1" x1="150.1" y1="447.5" x2="154.6" y2="441.2"/>
	<line class="st1" x1="155.2" y1="443.3" x2="160.1" y2="447.5"/>
	<line class="st1" x1="150.3" y1="452.7" x2="154.8" y2="446.5"/>
	<line class="st1" x1="155.4" y1="448.6" x2="160.3" y2="452.8"/>
	<line class="st1" x1="150.3" y1="458" x2="154.8" y2="451.8"/>
	<line class="st1" x1="155.4" y1="453.9" x2="160.3" y2="458.1"/>
	<line class="st1" x1="150" y1="463.3" x2="154.5" y2="457.1"/>
	<line class="st1" x1="155.1" y1="459.2" x2="159.9" y2="463.3"/>
	<line class="st1" x1="150.2" y1="468.6" x2="154.7" y2="462.4"/>
	<line class="st1" x1="155.3" y1="464.4" x2="160.2" y2="468.6"/>
	<line class="st2" x1="150.6" y1="473.2" x2="155.1" y2="467"/>
	<line class="st2" x1="155.7" y1="469.1" x2="160.5" y2="473.3"/>
	<line class="st2" x1="150.2" y1="478.5" x2="154.7" y2="472.3"/>
	<line class="st2" x1="155.4" y1="474.3" x2="160.2" y2="478.5"/>
	<line class="st2" x1="150.5" y1="483.8" x2="155" y2="477.5"/>
	<line class="st2" x1="155.6" y1="479.6" x2="160.4" y2="483.8"/>
	<line class="st2" x1="150" y1="489.2" x2="154.5" y2="482.9"/>
	<line class="st2" x1="155.2" y1="485" x2="160" y2="489.2"/>
	<line class="st2" x1="149.7" y1="494.4" x2="154.2" y2="488.2"/>
	<line class="st2" x1="154.8" y1="490.3" x2="159.7" y2="494.5"/>
	<line class="st2" x1="149.9" y1="499.7" x2="154.4" y2="493.5"/>
	<line class="st2" x1="155.1" y1="495.6" x2="159.9" y2="499.8"/>
	<line class="st3" x1="149.3" y1="506.2" x2="153.8" y2="500"/>
	<line class="st3" x1="154.4" y1="502.1" x2="159.3" y2="506.3"/>
	<line class="st3" x1="149" y1="511.5" x2="153.5" y2="505.3"/>
	<line class="st3" x1="154.1" y1="507.4" x2="158.9" y2="511.5"/>
	<line class="st3" x1="149.2" y1="516.8" x2="153.7" y2="510.6"/>
	<line class="st3" x1="154.3" y1="512.6" x2="159.2" y2="516.8"/>
	<line class="st3" x1="149" y1="523.6" x2="153.5" y2="517.3"/>
	<line class="st3" x1="154.1" y1="519.4" x2="159" y2="523.6"/>
	<line class="st2" x1="149.3" y1="528.1" x2="153.8" y2="521.9"/>
	<line class="st2" x1="154.4" y1="524" x2="159.3" y2="528.2"/>
	<line class="st2" x1="149.5" y1="533.4" x2="154" y2="527.2"/>
	<line class="st2" x1="154.6" y1="529.3" x2="159.5" y2="533.4"/>
	<line class="st3" x1="148.9" y1="539.9" x2="153.4" y2="533.7"/>
	<line class="st3" x1="154" y1="535.8" x2="158.8" y2="539.9"/>
	<line class="st3" x1="148.6" y1="545.2" x2="153" y2="539"/>
	<line class="st3" x1="153.7" y1="541" x2="158.5" y2="545.2"/>
	<line class="st3" x1="148.8" y1="550.5" x2="153.3" y2="544.2"/>
	<line class="st3" x1="153.9" y1="546.3" x2="158.7" y2="550.5"/>
</g>
<g class="st4">
	<path d="M81.2,5c0,0,3.8,0,4.8,0c0.1,0,0.1,0.1,0.1,0.3c0,0.3,0.2,0.5,0.4,0.5l3.2,0c0.5,0,1,0.4,1,1l0,0.5c0,0.8,0.6,1.4,1.4,1.4
		c0,0,16,0.3,22.5,0.3c0.2,0,0.2-0.4,0.1-0.7c0-0.3,0.2-0.5,0.4-0.5l2.3,0.1c0.2,0,0.4,0.1,0.6,0.2l2.9,2.3c0.6,0.5,1.4,0.8,2.2,0.8
		l3.8,0c0.7,0,1.3,0.2,1.9,0.6l12.9,9c5.1,3.6,8.8,8.8,10.4,14.9c0.1,0.5,0.3,1,0.4,1.5c1.5,5.5,2.3,11.1,2.4,16.8
		c0.2,11.5,0.6,31.6,0.8,38.3c0,1.4-0.2,2.9-0.8,4.2l0,0c-0.1,0.3-0.2,0.6-0.2,1l2.2,219c-0.3,7-1,14.2-2.2,20.7l-7.2,31.5
		c0,0-1.5,9.8-17,15.9c-3.9,1.5-10.5,2.9-14.6,3.2c-21.2,1.6-31.1,1.3-31.1,1.3l0.4,0c0,0-9.9,0.4-31.1-1.1
		c-4.1-0.3-10.8-1.7-14.7-3.1c-15.7-6-17.2-15.8-17.2-15.8l-7.6-31.5c-1.3-6.5-2.1-13.7-2.5-20.6l-0.6-219c0-0.3-0.1-0.7-0.2-1l0,0
		c-0.5-1.3-0.8-2.8-0.8-4.2c0.1-6.6,0.2-26.8,0.3-38.3c0-5.7,0.8-11.3,2.2-16.8c0.1-0.5,0.2-1,0.4-1.5c1.5-6,5.2-11.3,10.2-14.9
		l12.8-9.1c0.5-0.4,1.2-0.6,1.9-0.6l3.8,0c0.8,0,1.6-0.3,2.2-0.8l2.8-2.3c0.2-0.1,0.4-0.2,0.6-0.2L50,8c0.3,0,0.5,0.2,0.5,0.5
		c0,0.3-0.1,0.7,0.1,0.7c6.5,0,22.5-0.5,22.5-0.5c0.8,0,1.4-0.7,1.4-1.4l0-0.5c0-0.5,0.4-1,1-1l3.2,0c0.3,0,0.5-0.2,0.4-0.5
		c0-0.1,0-0.3,0.1-0.3c1,0,4.8,0,4.8,0"/>
	<path d="M2.4,157.9c0.1-0.2,0.3-0.4,0.4-0.5c5.2-5.7,9.1-6.9,10.7-7.1c0.5-0.1,1-0.3,1.5-0.6l3.9-3.2l0.1-3.7l4.2,16.8l-3.7-3.2
		l-3.5,0.8c-0.6,0.1-1,0.5-1.3,1c-2.2,3.9-11.5,7.9-14.5,8.6C-1.2,166.8,0.7,160.6,2.4,157.9z"/>
</g>
<g>
	<path class="st5" d="M166.8,206.6"/>
	<path class="st5" d="M162.6,294.1"/>
	<path class="st5" d="M45.4,293.8"/>
	<path class="st5" d="M164.8,147.9"/>
	<line class="st5" x1="150.6" y1="209.3" x2="150.3" y2="255.5"/>
	<path class="st5" d="M40.1,31.2"/>
	<path class="st5" d="M48.6,137"/>
	<path class="st5" d="M50.7,16.2"/>
	<path class="st5" d="M107.6,0.9c0,0-3.8,0-4.8,0c-0.1,0-0.1,0.1-0.1,0.3c0,0.3-0.2,0.5-0.4,0.5l-3.2,0c-0.5,0-1,0.4-1,1l0,0.5
		c0,0.8-0.6,1.4-1.4,1.4c0,0-16,0.3-22.5,0.3C74,4.9,74,4.5,74,4.1c0-0.3-0.2-0.5-0.4-0.5l-2.3,0.1c-0.2,0-0.4,0.1-0.6,0.2l-2.9,2.3
		c-0.6,0.5-1.4,0.8-2.2,0.8l-3.8,0c-0.7,0-1.3,0.2-1.9,0.6l-12.9,9c-5.1,3.6-8.8,8.8-10.4,14.9c-0.1,0.5-0.3,1-0.4,1.5
		c-1.5,5.5-2.3,11.1-2.4,16.8c-0.2,11.5-0.6,31.6-0.8,38.3c0,1.4,0.2,2.9,0.8,4.2l0,0c0.1,0.3,0.2,0.6,0.2,1l-2.2,219
		c0.3,7,1,14.2,2.2,20.7l7.2,31.5c0,0,1.5,9.8,17,15.9c3.9,1.5,10.5,2.9,14.6,3.2c21.2,1.6,31.1,1.3,31.1,1.3l-0.4,0
		c0,0,9.9,0.4,31.1-1.1c4.1-0.3,10.8-1.7,14.7-3.1c15.7-6,17.2-15.8,17.2-15.8l7.6-31.5c1.3-6.5,2.1-13.7,2.5-20.6l0.6-219
		c0-0.3,0.1-0.7,0.2-1v0c0.5-1.3,0.8-2.8,0.8-4.2c-0.1-6.6-0.2-26.8-0.3-38.3c0-5.7-0.8-11.3-2.2-16.8c-0.1-0.5-0.2-1-0.4-1.5
		c-1.5-6-5.2-11.3-10.2-14.9L152.4,8c-0.5-0.4-1.2-0.6-1.9-0.6l-3.8,0c-0.8,0-1.6-0.3-2.2-0.8l-2.8-2.3c-0.2-0.1-0.4-0.2-0.6-0.2
		l-2.3-0.1c-0.3,0-0.5,0.2-0.5,0.5c0,0.3,0.1,0.7-0.1,0.7c-6.5,0-22.5-0.5-22.5-0.5c-0.8,0-1.4-0.7-1.4-1.4l0-0.5c0-0.5-0.4-1-1-1
		l-3.2,0c-0.3,0-0.5-0.2-0.4-0.5c0-0.1,0-0.3-0.1-0.3c-1,0-4.8,0-4.8,0"/>
	<path class="st5" d="M104.4,186.9"/>
	<path d="M104.9,186.9l-30.4-0.1c0,0-4.7,0-4.9,5.7c-0.2,5.8-0.2,27.6-0.2,27.6s-0.5,3.7,5,3.8c5.4,0.1,30.3,0.1,30.3,0.1l-0.4,0"/>
	<path class="st6" d="M103.4,186.9l30.4,0.1c0,0,4.7,0,4.8,5.7c0.1,5.8-0.2,27.6-0.2,27.6s0.4,3.7-5,3.7c-5.4,0-30.3-0.1-30.3-0.1
		l0.4,0"/>
	<path class="st7" d="M164.8,147.9L152,198.4c-0.9,3.6-1.4,7.2-1.4,10.9l-0.3,46.2c0,5.5,1.1,10.9,3.4,15.9l13.9,24.8l1.1,2l1-147.1
		c0,0-0.6-19.9-0.6-19.9"/>
	<path d="M108,275.9c0,3.7-1.7,6.7-3.8,6.7c-2.1,0-3.7-3-3.7-6.7c0-3.7,1.7-6.7,3.8-6.7C106.4,269.2,108.1,272.2,108,275.9z"/>
	<path class="st8" d="M185.6,146.3c-0.1-0.2-0.3-0.4-0.4-0.5c-5.2-5.7-9.1-6.9-10.7-7.1c-0.5-0.1-1-0.3-1.5-0.6l-3.9-3.2l-0.1-3.7
		l-4.2,16.8l3.7-3.2l3.5,0.8c0.6,0.1,1,0.5,1.3,1c2.2,3.9,11.5,7.9,14.5,8.6C189.2,155.1,187.3,148.9,185.6,146.3z"/>
	<path class="st6" d="M103.7,298c0,0,36.1-0.3,43.7-4.2c0.6-0.3,1.3,0.1,1.4,0.7c0.9,10,7.9,46-6.3,49.1c0,0-11.9,4.3-39.1,4.5"/>
	<path class="st6" d="M106.7,109.7l-1.2,62.1c0,0,35.6,0.6,42.3,4.6l11.6-45.7c0,0,1.2-8.4-0.9-11.3s-1.6-5.1-16.6-7.4"/>
	<path d="M106.7,109.7l0.5,62c0,0-35.6,0.4-42.4,4.4l-11-45.8c0,0-1.1-8.4,1-11.3s3.9-4.5,17.1-6.4"/>
	<path d="M38.2,45.5c0,0,13.1-21.8,21.3-27.5c5.6-3.8,4.8-3.6,4.8-3.6l0-3l-13,7.8c0,0-8.8,5.8-10,11C39.6,35.8,38.2,45.5,38.2,45.5
		z"/>
	<path d="M173.1,45.9c0,0-12.8-21.8-20.9-27.6c-5.6-3.8-4.8-3.6-4.8-3.6l0-3l12.9,7.9c0,0,8.8,5.9,9.9,11
		C171.9,36.2,173.1,45.9,173.1,45.9z"/>
	<path d="M128.9,91.6c0,1.2-1,2.1-2.1,2.1c-1.2,0-2.1-1-2.1-2.1c0-1.2,1-2.1,2.1-2.1C127.9,89.5,128.9,90.5,128.9,91.6z"/>
	<path d="M81.7,91.5c0,1.2,0.9,2.1,2.1,2.1c1.2,0,2.1-0.9,2.1-2.1c0-1.2-0.9-2.1-2.1-2.1S81.7,90.3,81.7,91.5z"/>
	<polyline points="36.8,272.4 35,272.4 34.9,282.6 36.8,282.6 36.8,287.1 33.1,287.1 33.2,267.7 36.9,267.8 36.8,272.4 	"/>
	<path d="M40.4,129.2l16.9,69.4c0.9,3.6,1.3,7.2,1.3,10.9l-0.3,46.2c0,5.5-1.3,10.9-3.6,15.8l-14.2,24.7l-1.2,2l1-147.1
		C40.3,151.1,40.4,129.3,40.4,129.2"/>
	<path class="st9" d="M149.9,373l0,2.5c0,0.1-0.1,0.2-0.2,0.2l-13.1,3.1c-0.3,0.1-0.4-0.3-0.1-0.4l13.1-5.6
		C149.7,372.8,149.9,372.9,149.9,373z"/>
	<path class="st10" d="M151.6,372.4l0,2.4c0,0,4.8-1.8,8.2-4.3c0,0,2.7-1.8,3.7-7c0.9-5.2,0.3-5.7,0.3-5.7s-1.9,7.5-3.4,8.8
		C159,368,151.6,372.4,151.6,372.4z"/>
	<path class="st9" d="M57,372.8l0,2.5c0,0.1,0.1,0.2,0.2,0.2l13.1,3.2c0.3,0.1,0.4-0.3,0.1-0.4l-13-5.7
		C57.2,372.5,57,372.6,57,372.8z"/>
	<path class="st10" d="M55.3,372.1l0,2.4c0,0-4.8-1.9-8.1-4.3c0,0-2.7-1.8-3.6-7c-0.9-5.2-0.2-5.7-0.2-5.7s1.8,7.5,3.2,8.8
		C48,367.7,55.3,372.1,55.3,372.1z"/>
	<path d="M114.7,6.1"/>
	<path d="M95.7,6"/>
	<path class="st8" d="M44.9,147.6l-2.1-9.3l-1.2-4.3l-1.1-4.7l-4.2,9c0,0-3.7-0.3-9.4,4.9c-2,1.8-3.5,4-4.4,6.5
		c-0.9,2.5-1.3,5-0.4,5c3.2-0.7,13.6-5.2,14.9-9.3l4.4-1L44.9,147.6z"/>
	<polyline points="171.3,272.9 171.4,268.2 175.1,268.2 174.9,287.5 171.3,287.5 171.3,283 173.1,283.1 173.2,272.9 171.3,272.9 	
		"/>
	<path d="M103.8,348.1c-27.2-0.4-39.1-4.7-39.1-4.7c-14.2-3.2-6.7-39.1-5.7-49.1c0.1-0.7,0.8-1,1.4-0.7c7.6,3.9,43.7,4.4,43.7,4.4"
		/>
</g>
</svg>
