<?xml version="1.0" encoding="utf-8"?>
<!-- Generator: Adobe Illustrator 19.2.0, SVG Export Plug-In . SVG Version: 6.00 Build 0)  -->
<svg version="1.1" xmlns="http://www.w3.org/2000/svg" xmlns:xlink="http://www.w3.org/1999/xlink" x="0px" y="0px"
id="hand-tool"
	 viewBox="0 0 856 401" style="enable-background:new 0 0 856 401;" xml:space="preserve">

<g id="Layer_1">
	<g>
		<defs>
			<path id="XMLID_2_" d="M546.4,144.8l1.2,0c0,0,51-0.6,86.5,7.6c20,6.1,47.9,13.9,64,29.9c15.1,12.8,30.4,30.6,56.3,31.3
				c8.7-0.6,24-2.2,52.4-18.2c0,0,22.2-12.6,28.8-19.7c6.2-5.7,15.7-13.8,18.4-19.3c1-2,2.4-3.9,1.7-9.8c-0.8-2.2-1.8-4.9-1.8-4.9
				l-44.2,7.4l-34.4,5.4c0,0-5.1,1.1-10.9-3.8c-4.1-2.9-14.3-10.4-18.7-19.7c-2.2-4.2-9-14.3-5.1-29.5c0,0,2.8-11.1,5.6-15.1
				c1.9-2.8,6.1-9.3,14.7-11.4c8.1-1.5,73.2-13.7,73.2-13.7s2.8-10.7-3.9-15c-4.5-2-25.1-10-25.1-10s-9.1-4.2-38.7-8.8
				c-8.6-1.1-8.5-1.3-20.2-2.1c-3.6-0.1-16.5-1.4-32.4,4.6c0,0-8.2,3.6-14.7,9.1c-2.4,1.9-4.9,4.7-12.3,11.3
				c-4.2,3.7-13.8,12-24.5,16.4c-9.1,3.8-18.8,8.9-49.8,10.6c-3.3,0.1-35.1-0.9-35.1-0.9l-5.6-0.2L286.6,64c0,0-57.8-2.5-103.2-7.6
				c-0.8-0.1-1.6-0.2-2.4-0.4c-13.5-3-34.2-7.1-67.3-31.2c0,0-12.2-12-29.2-12.5c-4.2-0.1-20.1-0.9-39.1,11.7
				C39,28,25.8,37.1,25.8,37.1L13.6,47c0,0-8.7,9.2-10.2,11.5c-1.4,2.3-3.7,6.3-3.3,8.4c0.4,2,1.3,4.3,1.3,4.3s0.2,1.3,7.7-0.6
				c7.1-1.4,28.5-5.6,28.5-5.6l21.8-4.2c0,0,4.4-0.9,8.3,2.2c0,0,6.3,4.2,7.5,5.5c1.1,1,7.2,6.4,8.8,9.8c1.1,1.7,2.7,4.2,3.9,7.3
				s2.4,6.8,2.7,8.1c0.3,1.3,2.1,9.3,1.6,13.5c0,0-0.7,5.6-1.2,9.4c-0.4,2-1,6-3.9,7.7c0,0-1,0.6-2.6,1c-1.6,0.3-19.2,3.9-19.2,3.9
				l-26.8,5.5l-11.2,2.5c0,0-3.3,1.2-3.8,4.1c0,0-0.4,2.2,0,3.4c0.2,0.6,1.3,3.2,1.8,3.8c0.4,0.5,1.6,2.5,4.4,3.9
				c0.5,0.3,3.8,2,6.3,2.7c1.2,0.3,23.9,6.2,23.9,6.2s2.2,0.6,5,1c2.8,0.3,10.8,1.3,10.8,1.3l10.6,1.3c0,0,10.6,1.5,18.2,0.5
				c4.7-0.5,11.6-1.2,16-3.7c3-1.8,13.2-8.2,15.2-10c1.9-1.5,6.4-5.1,10.3-7.3c3.9-2.2,9.2-5,15.9-7.7c0,0,12.5-6.4,42.8-8.1
				c0,0,26.7-0.4,44.9,1l298,15.2"/>
		</defs>
		<use xlink:href="#XMLID_2_"  style="overflow:visible;fill:#D3D4D5;"/>
		<clipPath id="XMLID_4_">
			<use xlink:href="#XMLID_2_"  style="overflow:visible;"/>
		</clipPath>
		<path class="st0" d="M618.9,132.2L204.4,112c-9.9-0.5-17.6-9-17.1-18.9l0-0.6c0.5-9.9,9-17.6,18.9-17.1l414.5,20.1
			c9.9,0.5,17.6,9,17.1,18.9l0,0.6C637.3,124.9,628.8,132.6,618.9,132.2z"/>
		<path class="st0" d="M67.7,63c0,0,10.4,1.1,12.3,4.4c1.9,3.2,21.4,23,16,49.5c-0.3,1.5-0.5,3.1-0.6,4.6c-0.2,2.2-2.5,5.7-4.4,6.8
			c-4.8,2.8-67.5,16.2-67.5,16.2l-7.8-3.4l1.9-6.6L67.7,63"/>
		<path class="st0" d="M59.9,161.3c0,0,42.1,2.8,53.2-9.5s45.6-24.6,45.6-24.6s78.9-9.9,112.2,3.5c33.3,13.3-55.6,46.7-55.6,46.7
			L59.9,161.3"/>
		<path class="st1" d="M300.5,51l-18.3,0.3c0,0-49.6,73.4-46,85.8c3.6,12.4,33.8,2.9,33.8,2.9L300.5,51z"/>
		<path class="st1" d="M545.2,63.8l25,4c0,0-4.3,84.4-14,80.7c-9.7-3.7-31.3,3.1-31.3,3.1L545.2,63.8z"/>
	</g>
	<path class="st2" d="M280.4,60.5"/>
	<path class="st3" d="M369.8,9.9"/>
	<g>
		<defs>
			<path id="XMLID_1_" d="M256.6,130c0.8,1,0.6-0.2,0.5,2.7c-0.2,7.8,1.1,49.9,1.1,49.9s0.8,3.2-0.2,6c-1,2.5-5.5,33.8-1,47.2
				c0.5,3.2,1.5,21.2,0.2,27.2c0.2,5,3,78.8,3,78.8s-0.5,54.2-2.8,59h181.7v0.2c0,0-10.9-59.8-12-93.6c-0.2-7,0.8-13.9,3-20.5
				c5-15,16.8-42.3,40.1-54.9c3.5-2.5,44-26,60.5-56.5c0,0,9-16,15.5-32c0,0,28.4-25.9,23.4-65.6c0,0-0.6-4.4-2.5-7.5
				c-0.6-1-1.2-2-1.9-2.9c-2.6-3.2-8.3-10.2-13.5-13.8c-1.6-1.5-14.1-14.5-16.1-18.8c0,0-2.8-3.2-3.5-5.8c-1-2.6-8.1-19.9-13-24.2
				c-2.5-1.6-5.3-4.1-11.6-1.4c-1.1,0.6-3.4,1.9-5,2.8c-0.8,0.4-1.4,1-2.1,1.5c-0.5,0.4-1.4,0.6-2.8-0.5c-0.5-0.4-1.4-0.9-2.1-1.2
				c-0.3-0.1-0.7-0.3-1.1-0.5C488,3.1,480.8,3.2,474.5,6c-3.3,1.4-6.7,3.3-8.2,5.5c0,0.1-0.1,0.1-0.1,0.2c-1.3,1.7-3.2,4.7-5.4,2.1
				c-0.2-0.2-0.4-0.5-0.7-0.7c-2.3-1.7-4.8-3.5-10.8-5c-0.9-0.2-4.6-1.1-6.9-3.2c-0.9-0.8-1.8-1.6-2.9-2.1c-3.6-1.8-10-4.1-18.1-2.8
				c-4.2,0.9-13,2.4-20,10.6c-1.9,1.9-1.9,3.1-5.9,2.2c-2.8-0.6-16.1-3.4-25.8-2.9c-2.6,0.3-8.5,0.5-18.3,6.5
				c-1.5,0.9-2.8,2.1-4,3.4c-1.5,1.7-3,3-5.3,1.8c-2.8-1.5-7.7-4.2-21.3-3.7c-0.5,0-1,0.1-1.4,0.2c-1.3,0.3-2.6,0.7-4,1.2
				c-1.9,0.7-3.6,1.8-5.2,3.1c-0.6,0.5-1.7,1.1-3.2,1.5c-2,0.8-5.6,1.4-7.8,4.8c0,0-1.7,2.2-3.1,4c-0.8,1.1-1.5,2.4-2,3.7
				c-1.2,3-3.9,9.7-4,12.6c0,2.5-3.2,14.4-5.4,14.8"/>
		</defs>
		<use xlink:href="#XMLID_1_"  style="overflow:visible;fill:#FFE4B0;"/>
		<clipPath id="XMLID_5_">
			<use xlink:href="#XMLID_1_"  style="overflow:visible;"/>
		</clipPath>
		<path class="st4" d="M284.7,46.5c0,0,13.7-13,16.9-15.6s9.1-4.1,10.9-6.4c1.7-2.4,13.1-5.8,14.8-2.8c0,0,14.8,2.8,14.8,10.7
			s9.8-17.2,15.6-19.3c5.8-2.1-9.3-9.9-9.3-9.9l-62.1,26.5L284.7,46.5z"/>
		<path class="st4" d="M369.7,9.9c0,0,21.3,3.1,24.5,8c3.3,4.9,11.9-4.4,11.8-8c-0.1-3.6,21.2-12.8,26.5-12.8
			c5.3,0,16.7,7.9,20.8,15.2c4.1,7.3,9.4,8.9,7.3,19.9c-2,11,4.9,2.4,4.9-2.9S469.6,2,472.5,2c2.9,0-7.3-23.6-7.3-23.6l-65.2-9.8
			L369.7,9.9"/>
		<path class="st4" d="M500.4,7.8"/>
		<path class="st4" d="M520.1,53.5c0,0,12.9,47.1,10.3,51.7c-2.7,4.6,8.4-8.4,7.6-11.8C537.2,90,519.7,58.1,520.1,53.5z"/>
		<path class="st4" d="M546.2,143.5c0,0-29.7,51.8-46.5,57s-66.4,43.4-66.4,58c0,14.6-20.2,60.7-20.2,60.7l82.1-75.4L546.2,143.5"/>
		<path class="st4" d="M337.7,74.1c0,0-22.5,70.9-20.2,90C319.7,183.2,339.9,93.2,337.7,74.1z"/>
		<path class="st4" d="M455.4,52.7c0,0-22.5,70.9-20.2,90C437.4,161.8,457.6,71.8,455.4,52.7z"/>
		<path class="st4" d="M398.9,52.7c0,0-22.5,70.9-20.2,90C380.9,161.8,401.1,71.8,398.9,52.7z"/>
	</g>
	<path class="st3" d="M284.7,63.8c0,0-3.4,8.2-7.4,24.5c-0.6,2.4-1.2,4.9-1.8,7.6c-1,4.5-2,9.4-3,14.8
		c-7.5,40.4-13.9,106.6-3.8,197.8H259l-1.7-45.6c0,0,0.5-6.9,0.5-12.3s0.6-9.4-0.7-14.9s-3.1-22,1-47.2c0,0-0.1-17-0.3-22.4
		c-0.1-5.4-2.2-25.1-0.6-33.5l-0.6-2.7L284.7,63.8z"/>
	<path class="st5" d="M249.6,127.2"/>
	<rect x="232" y="338.2" class="st6" width="232" height="62.8"/>
	<path class="st7" d="M232,338.2c0,0,1.1-17.8-0.8-25c-1.9-7.1,37.1-9.2,50.4-4.1c13.3,5.1,58.9,10.2,69.4,5.1
		c10.5-5.1,94.7-10.3,104.6-7.1s17.6,3.3,17.6,3.3s15.6,27.3-10.1,27.8"/>
	<rect x="239.8" y="338.2" class="st8" width="216" height="15.5"/>
	<g>
		<circle class="st9" cx="446.9" cy="321.2" r="8.2"/>
		<circle class="st10" cx="446.9" cy="321.2" r="1.6"/>
		<circle class="st10" cx="452.7" cy="321.2" r="1"/>
		<circle class="st10" cx="446.9" cy="327" r="1"/>
		<circle class="st10" cx="441.1" cy="321.2" r="1"/>
		<circle class="st10" cx="446.9" cy="315.9" r="1"/>
	</g>
</g>
<g id="Layer_2">
</g>
</svg>


