<?xml version="1.0" encoding="utf-8"?>
<!-- Generator: Adobe Illustrator 19.2.0, SVG Export Plug-In . SVG Version: 6.00 Build 0)  -->
<svg version="1.1" id="Layer_1" xmlns="http://www.w3.org/2000/svg" xmlns:xlink="http://www.w3.org/1999/xlink" x="0px" y="0px"
	 viewBox="0 0 289.7 378.5" style="enable-background:new 0 0 289.7 378.5;" xml:space="preserve">
<style type="text/css">
	.st0{fill:#FF0013;}
	.st1{fill:#52B7E0;}
	.st2{fill:none;}
</style>
<path class="st0" d="M76.6,194.2"/>
<path class="st1" d="M167.6,334.6h-3.7c-0.2,0-0.5-0.1-0.6-0.3l-9.6-10.1c-0.2-0.2-0.2-0.4-0.2-0.6V49.9c0-3.3-2.1-6-4.6-6h-15.6
	c-2.5,0-4.6,2.7-4.6,6v273.8c0,0.2-0.1,0.4-0.2,0.6l-9.6,10.1c-0.2,0.2-0.4,0.3-0.6,0.3h-3.7c-0.4,0-0.7,0.2-0.8,0.6
	c-0.4,1.3-1.3,4.4,0.2,4.7c1.7,0.3,14.8,0.1,17.7,0c0.1,0,0.2,0,0.3,0.1c0.4,0.2,0.8,0.3,1.3,0.3h15.6c0.4,0,0.9-0.1,1.3-0.3
	c0.1,0,0.2-0.1,0.3-0.1c2.9,0.1,16.1,0.3,17.7,0c1.5-0.2,0.6-3.3,0.2-4.7C168.3,334.9,168,334.6,167.6,334.6z"/>
<rect x="122.1" y="40.6" class="st1" width="37.5" height="9.7"/>
<rect x="129.3" y="269.7" class="st2" width="23.7" height="27.2"/>
</svg>
