<?xml version="1.0" encoding="utf-8"?>
<!-- Generator: Adobe Illustrator 19.2.0, SVG Export Plug-In . SVG Version: 6.00 Build 0)  -->
<svg version="1.1" id="hoist" xmlns="http://www.w3.org/2000/svg" xmlns:xlink="http://www.w3.org/1999/xlink" x="0px" y="0px"
	 viewBox="0 0 289.7 378.5" style="enable-background:new 0 0 289.7 378.5;" xml:space="preserve">
<rect x="236.6" y="194.9" transform="matrix(-1 -4.451340e-11 4.451340e-11 -1 475.9589 395.1132)" class="st0" width="2.7" height="5.4"/>
<path d="M232.9,194.9h9.8c0.6,0,1-0.5,1-1v-1.7c0-0.6-0.5-1-1-1h-9.8c-0.6,0-1,0.5-1,1v1.7C231.9,194.4,232.4,194.9,232.9,194.9z"/>
<path class="st1" d="M203.1,197h4.8l2.4,1.1c0,0,26,2.5,30.8,1.7c0,0,2.7,1.4,1.6,3.2l-40.7,0.6L203.1,197z"/>
<rect x="42.1" y="194.8" class="st0" width="2.7" height="5.4"/>
<path d="M48.5,194.8h-9.8c-0.6,0-1-0.5-1-1V192c0-0.6,0.5-1,1-1h9.8c0.6,0,1,0.5,1,1v1.7C49.5,194.3,49.1,194.8,48.5,194.8z"/>
<path class="st1" d="M78.3,196h-4.8l-2.4,1.1c0,0-26,2.5-30.8,1.7c0,0-2.7,1.4-1.6,3.2l40.7,0.6L78.3,196z"/>
<polygon class="st1" points="132.7,184.8 116.4,192 76.6,194.2 76.6,203.6 117.3,205.7 134.8,200.2 "/>
<path class="st2" d="M76.6,194.2"/>
<polygon class="st1" points="148.7,184.9 165,192.1 204.9,194.3 204.9,203.7 164.2,205.8 146.6,200.3 "/>
<path class="st3" d="M167.6,334.6h-3.7c-0.2,0-0.5-0.1-0.6-0.3l-9.6-10.1c-0.2-0.2-0.2-0.4-0.2-0.6V49.9c0-3.3-2.1-6-4.6-6h-15.6
	c-2.5,0-4.6,2.7-4.6,6v273.8c0,0.2-0.1,0.4-0.2,0.6l-9.6,10.1c-0.2,0.2-0.4,0.3-0.6,0.3h-3.7c-0.4,0-0.7,0.2-0.8,0.6
	c-0.4,1.3-1.3,4.4,0.2,4.7c1.7,0.3,14.8,0.1,17.7,0c0.1,0,0.2,0,0.3,0.1c0.4,0.2,0.8,0.3,1.3,0.3h15.6c0.4,0,0.9-0.1,1.3-0.3
	c0.1,0,0.2-0.1,0.3-0.1c2.9,0.1,16.1,0.3,17.7,0c1.5-0.2,0.6-3.3,0.2-4.7C168.3,334.9,168,334.6,167.6,334.6z"/>
<polygon class="st4" points="153.4,296.9 153.4,301.4 128.7,301.4 128.7,296.9 "/>
<rect x="131.3" y="231.5" class="st5" width="19.9" height="28.9"/>
<path class="st6" d="M146.2,262.1"/>
<rect x="135.5" y="236.9" class="st7" width="11.8" height="14.6"/>
<rect x="135.5" y="251.5" width="11.7" height="3"/>
<circle class="st8" cx="141.4" cy="243.7" r="3.5"/>
<rect x="122.1" y="40.6" class="st3" width="37.5" height="9.7"/>
<path class="st9" d="M138.6,298c0,0,0.6,6.3-2.8,5.7c-3.5-0.6-4.5,2.6-3.5,3.7s7.5,3.1,4.3,6.7c-3.2,3.7-5.6,4.3-1.3,7.3
	c0,0,2.5,1.6,5.3,0.1c2.8-1.5,4.3-6.6,8-5.8c0,0,0.1,0,0.1,0c0,0,2.7,0.8,4.7,1.9"/>
<polygon class="st4" points="151.2,260.4 151.1,264.9 131.3,264.9 131.3,260.4 "/>
<path class="st10" d="M140.4,297c0,0,0.5,6.8-2.9,6.2c-3.5-0.6-4.5,2.6-3.5,3.7c1.1,1.1,7.5,3.1,4.3,6.7c-3.2,3.7-5.6,4.3-1.3,7.3
	c0,0,2.5,1.6,5.3,0.1c2.8-1.5,2.4-6.7,8-5.8c0,0,0.1,0,0.1,0l-0.1,0c0,0,13,2.2,3.3,9.1"/>
<polygon class="st4" points="153.3,278.9 128.8,287.1 128.8,273.2 153.3,273.2 "/>
<rect x="129" y="269.4" class="st11" width="24.2" height="27.2"/>
<rect x="129.3" y="269.7" class="st12" width="23.7" height="27.2"/>
<path class="st13" d="M148.8,288.1h-0.2c-0.5,0-0.9-0.4-0.9-0.9v-8c0-0.5,0.4-0.9,0.9-0.9h0.2c0.5,0,0.9,0.4,0.9,0.9v8
	C149.8,287.7,149.3,288.1,148.8,288.1z"/>
<path class="st10" d="M153.3,310.5"/>
<polygon class="st4" points="140.2,260.5 140.2,269.2 141.7,269.2 141.7,260.5 "/>
<polygon class="st13" points="139.6,259.8 139.6,269.2 141.1,269.2 141.1,259.7 "/>
<polygon class="st4" points="128.4,333.1 128.3,340.1 131.7,340.1 132.9,340.3 149.2,340.3 150.5,340.1 154.4,340.1 153.4,332.8 
	128.7,332.8 "/>
</svg>
