<?xml version="1.0" encoding="utf-8"?>
<!-- Generator: Adobe Illustrator 19.2.0, SVG Export Plug-In . SVG Version: 6.00 Build 0)  -->
<svg version="1.1" id="Layer_1" xmlns="http://www.w3.org/2000/svg" xmlns:xlink="http://www.w3.org/1999/xlink" x="0px" y="0px"
	 viewBox="0 0 248 248" style="enable-background:new 0 0 248 248;" xml:space="preserve">
<style type="text/css">
	.st0{fill:#EFEFEF;}
	.st1{fill:none;stroke:#000000;stroke-miterlimit:10;}
	.st2{fill:#FFE4B0;}
	.st3{fill:none;stroke:#231F20;stroke-width:1.2125;stroke-miterlimit:10;}
	.st4{fill:#F8CF96;}
	.st5{fill:url(#SVGID_1_);}
	.st6{fill:#C2B59B;}
	.st7{fill:#D1D3D4;}
	.st8{fill:#8C56A3;}
	.st9{fill:#FFFFFF;}
	.st10{fill:#231F20;}
</style>
<g>
	<circle id="XMLID_36_" class="st0" cx="124.1" cy="124.1" r="123.9"/>
</g>
<path class="st1" d="M89.9,163.1c0,0,5.9,17.7,30.9,18.2s38.2-2.9,41.3-18.2"/>
<path class="st2" d="M83.6,96.5c0,0-6.1-4.6-6.8-12.8c-0.1-2.2-0.7-12,7.3-11C83.8,76.2,83.6,96.5,83.6,96.5z"/>
<path class="st2" d="M164.9,97.3c0,1.8-0.2,3.8-0.5,5.7c-1.3,8.8-4.7,17.1-9.6,24.5c-2.8,4.3-6.3,9.2-9.1,12.2
	c-9.3,9.1-20.6,10.3-20.6,10.3l-0.1,0c-1.4,0-2.8-0.1-4.2-0.4c-3.8-0.9-11.5-3.4-18.2-9.9c-3.1-3.3-7-8.9-10-13.5
	c-3.7-5.6-6.3-11.8-7.8-18.3c-0.8-3.5-1.4-7.3-1.4-10.6V47.6l81.4,0.8V97.3z"/>
<line class="st3" x1="82.8" y1="76.1" x2="82.8" y2="89.7"/>
<path class="st4" d="M84,71.9h2.1c0,0,10.3-3.2,12.4-12.6c7.5,4.9,32.7,18.1,32.7,18.1l5.6-3.5L96,48.5L84,71.9z"/>
<path class="st4" d="M161.9,79.5c0,0-2.5,12.8-13.3,17.2c-1,7.2-0.8,15.2-3.1,20.1c-2.3,4.9-12.9,31.9-24.7,32.8
	c4.3,0.4,24.5,3.3,39.8-35c0,0,4.2-10.8,4.2-17.3c3.1-2.6,5.1-3.2,6.4-10.6c0.1-3.3-0.2-6-0.2-6L161.9,79.5z"/>
<linearGradient id="SVGID_1_" gradientUnits="userSpaceOnUse" x1="112.6117" y1="96.5134" x2="129.1102" y2="96.5134">
	<stop  offset="0" style="stop-color:#F6CB98"/>
	<stop  offset="0.3888" style="stop-color:#F6CB98"/>
	<stop  offset="1" style="stop-color:#F7CC90"/>
</linearGradient>
<path class="st5" d="M112.6,105.8l8.4,1l-0.4-23.9h6.2l2.2,23.9c0,0-3.1,3-4.9,3.2c-1.7,0.2-6.8,0-6.8,0L112.6,105.8z"/>
<path class="st6" d="M123.3,79.9h-4.5c0,0-8.3-7.6-18.2-8H81.2c-1.4,0-2.5,1.2-2.3,2.5c0.1,0.5,0.3,1,0.9,1.5c1,0.9,2.2,1.3,3.1,1.5
	c0.9,0.2,1.6,0.9,1.9,1.8c0.9,3.7,3.9,13,13.2,17.4c1.9,0.9,3.9,1.3,6,1.1c6.5-0.4,12.8-2,15.1-11.1c0.1-0.5,0.3-0.9,0.6-1.3
	c0.7-1,1.2-2,3.7-1.9"/>
<path class="st6" d="M123.3,79.9h4.5c0,0,8.3-7.6,18.2-8c10,0,20.8,0,20.8,0s2.1,2.3,0,4c-2.1,1.7-4.6,1.8-4.6,1.8
	s-1.7,13.5-13.6,19.1c-1.8,0.8-3.8,1.2-5.8,1.1c-6.5-0.3-13-1.9-15.3-11.1c-0.1-0.5-0.3-0.9-0.6-1.3c-0.8-1-1.2-2-3.7-1.9"/>
<path class="st7" d="M93.4,74.9c-2.2,0.7-3.9,2.4-4.4,4.6c-0.3,1.4-0.4,3.2,0.5,5.1c0.9,1.8,4.9,9.9,13,10.8
	c5.3,0,13.2-1.1,13.8-9.5c0,0,0.6-11.3-15.7-11.6C99.4,74.3,96.4,74,93.4,74.9z"/>
<path class="st7" d="M154.1,74.9c2.2,0.7,3.9,2.4,4.4,4.6c0.3,1.4,0.4,3.2-0.5,5.1c-0.9,1.8-4.9,9.9-13,10.8
	c-5.3,0-13.2-1.1-13.8-9.5c0,0-0.6-11.3,15.7-11.6C148.1,74.3,151.1,74,154.1,74.9z"/>
<path id="XMLID_37_" class="st2" d="M124.2,229.8c0,0,9.3,0.1,28.4-3c27.5-5.9,46.3-20,52.2-24.9c1.2-1,1.7-2.7,1.1-4.2
	c-0.6-1.5-1.5-3.9-3-7.6c-1-3.9-2.6-6.8-4.1-8.7c-1.4-1.9-3.4-3.2-5.7-4l-12.7-4.3l-33.4-9.7v-26c0,0-7.1,7.9-19.2,11.4
	c-2.5,0.7-5.1,0.9-7.7,0.4c-4-0.8-10.4-3.1-19.1-11.8v26l-33.4,9.7L53.5,178c-0.8,0.3-1.5,0.7-2.1,1.2c-1.6,1.4-4.5,4.7-6.1,10.5
	c-0.1,0.3-0.2,0.6-0.3,0.9c-1.1,2.8-1.9,4.8-2.5,6.3c-0.8,2-0.2,4.3,1.5,5.7c6.7,5.4,25.1,18.6,51.5,24.3c19.1,3,29.2,3,29.2,3"/>
<path class="st4" d="M108.4,143.9c0,0,21.4,28.4,37.3,24.6c1.8-1.2,1.3-5,1.3-5v-26C147.1,137.5,126.2,159.5,108.4,143.9z"/>
<path class="st8" d="M124.2,181.5c-26.4-0.5-23.1-17.9-23.1-17.9l-47.6,14.5c0,0-5.9,3.3-7.2,8.9c-2,5.8-3.7,10-3.7,10
	s-1.4,3.5,1.5,5.7s20.1,15.5,34.6,19.4c7,2.3,26.6,7.2,45.5,7.9"/>
<path class="st8" d="M124.2,181.5c26.4-0.5,23.1-17.9,23.1-17.9l47.6,14.5c0,0,5.9,3.3,7.2,8.9c2,5.8,3.7,10,3.7,10s1.4,3.5-1.5,5.7
	c-2.9,2.2-20.1,15.5-34.6,19.4c-7,2.3-26.6,7.2-45.5,7.9"/>
<polygon class="st9" points="139.6,88.7 145.9,88.7 157.5,77.1 149.9,77.1 "/>
<polygon class="st9" points="134.6,88.1 138.1,88.1 144.5,81.7 140.3,81.7 "/>
<path class="st10" d="M171.1,80.6c0,0,2.6,11.2-6.2,16.6c0,4.5-5.3,29.9-21.2,44.3c0.6,10.6,3.4,22.6,3.4,22.6l18.6,5.3
	c0,0-2.5-35.6,1.2-52.3c3.6-14.9,7.3-24.8,6.4-43c-3-19.7,0.3-52.5-47.9-54c-12.1,0.9-31.2,0.8-45.3,24c-0.8,1.4-1.5,2.9-1.9,4.4
	c-1.6,5.7-3.9,17.9-4.8,30.5c-0.1,1.1-0.1,2.2,0.1,3.3c0.8,7.8,2.9,21.2,2.9,21.2l4.3,18.1c0.4,1.7,0.6,3.4,0.7,5.1
	c0.3,8.6,0.9,36-1.9,43.1c3.9-0.9,21.8-6.3,21.8-6.3l1.6-23.8c0,0-14.3-18.7-17.1-30c-1-6-1.9-13.2-1.9-13.2s-9-6.4-6.5-18.9
	c1.1-2.8,2-4.7,4.6-5.2c0.4-0.1,0.8-0.1,1.2-0.1c2.2,0,11.7-13.2,13.4-20.8c2.5,1.8,25.5,23,42.4,25.1
	C145.5,77.6,171.1,80.6,171.1,80.6z"/>
</svg>
