<?xml version="1.0" encoding="utf-8"?>
<!-- Generator: Adobe Illustrator 19.2.0, SVG Export Plug-In . SVG Version: 6.00 Build 0)  -->
<svg version="1.1" id="Layer_1" xmlns="http://www.w3.org/2000/svg" xmlns:xlink="http://www.w3.org/1999/xlink" x="0px" y="0px"
	 viewBox="0 0 1231 602" style="enable-background:new 0 0 1231 602;" xml:space="preserve">
<style type="text/css">
	.st0{fill:#D1D3D4;}
	.st1{fill:#FFFFFF;}
	.st2{fill:#FFF200;}
	.st3{fill:#FFFFFF;stroke:#ED1C24;stroke-width:1.8409;stroke-miterlimit:10;}
	.st4{font-family:'MyriadPro-Regular';}
	.st5{font-size:22.0912px;}
	.st6{font-family:'Futura-Medium';}
	.st7{font-size:10px;}
	.st8{fill:#8C56A3;}
	.st9{fill:#822882;}
	.st10{font-size:14px;}
</style>
<polygon class="st0" points="0,1.5 703.5,1.7 833.3,602.6 0,601.8 "/>
<path class="st1" d="M174,438c0,0-37.5-150-38-152.5c10.2-0.7,82.7-15.8,91.7-17.5s86.1-12.7,86.1-12.7s17.3,89,19.5,98.7
	c8.7,34-0.3,49.8-3,55.3c-2.7,5.5-15,19.2-20,25.8c-6.3,10.8,4,18.3,7.5,21.8c5.8,3,7.7,30,8.3,40.7c0.8,18,11.3,32.3,14.5,36.8
	c6.2,12,27,16,36.8,17c6.7-0.4,12.5,0,16.3,0.4c3.1,0.3,6.1,1.2,9,2.4c6.3,2.8,19.7,8.8,33.2,14.6c23.7,10.1,58.7,0,58.7,0
	s91.3-13.3,120.8-17.3L815.4,520l-2.7-12.5l-117.4,19.7l-83,12.5c0,0-108,17.2-129.5,20c-21.5,3.2-35.2,1.2-35.2,1.2
	s-8.5-3-15.4-6.1c-29.5-15.4-36.8-14.4-39.8-14.2c-16.2,0.1-25.4-2.1-32.1-5.2c-16.5-6.9-20.1-34.9-20.1-34.9s-2.4-20.6-2.6-27.2
	s-5.4-17.2-6.8-20.4s-7.5-7.9-9-9.9s5.1-8.4,14.6-20.4c20.5-19.5,12-60.5,12-60.5l-5-25l-17-84l412.9-85.1l-2.4-11L325.3,243
	c0,0-29.3-148-35.3-174c-4-26-29.9-67.5-29.9-67.5l-16.8-1.6c0,0,18.7,28.4,22.7,35.8s12.7,42,12.7,42l33.6,167.1l-79.8,10.8
	L214,172.3c0,0-20.7-91.7-26.3-111.3c-7.3-22-31.2-61.1-31.2-61.1S144,0.8,139-0.1c5,2.4,22.8,37.3,30,51.8c8.2,13.5,16,55,16,55
	s-7.2,0.8-31.8,4.8c-26.2,6-62.5-4-75.5-7c-14-5-77.1-14.8-77.1-14.8V101l16.6,2.8c0,0,85.8,18.5,107,20.8c25.5,2,63.2-7,63.2-7
	l32.2,140.2l-87.2,17.5c0,0-4.2-15-11.5-42s-18.5-28.5-25-31c-13.8-6-95.3-17.8-95.3-17.8s-0.7,6,0,11.2c17.2-0.2,75.3,14,88.1,16.5
	s15.5,14.8,15.5,14.8l17.2,57.5c0,0,37.5,150.5,38.8,155.5l0.8,3.8l13.8-3.2L174,438z"/>
<polygon class="st2" points="720.9,1.2 855.1,602.6 1231,601.8 1231,1.5 "/>
<path class="st1" d="M964,132.5l163.7-24.1c0,0,19.3,81.7,21.7,92l3.3,11.7l12.7-3l-2-8c0,0-23.3-98.7-23.7-104.3
	c-1.3-16.3-3.3-26-3.3-26L1123,1.5h-15c0,0,10.3,48.8,13,60.2s5,36.3,5,36.3l-165.3,22.5L936.3,0.9H921l24.5,122.5l-192.7,30.9
	l2.7,12l191.9-30.9l32.3,121.3l13.3-4.3L964,132.5z"/>
<g>
	<path class="st3" d="M803.1,426.6l-13.8-3.5c-1.4-0.4-2.4-1.5-2.6-3l-1.5-12.9c-0.1-1.1,0.3-2.3,1.1-3.1l1-0.9
		c0.6-0.6,1.4-1,2.2-1.1l10.6-1.2"/>
	<path class="st3" d="M803.1,426.6l12.6-6.6c1.3-0.7,2-2.1,1.8-3.5l-1.5-12.9c-0.1-1.1-0.8-2.2-1.8-2.8l-1.1-0.7
		c-0.7-0.4-1.6-0.6-2.4-0.5l-10.6,1.2"/>
	<text transform="matrix(0.9932 -0.1167 0.1167 0.9932 791.0366 421.9744)" class="st4 st5">10</text>
</g>
<text transform="matrix(0.2428 0.9701 -0.9701 0.2428 1137.3275 138.696)"><tspan x="0" y="0" class="st6 st7">golden rd</tspan><tspan x="61.8" y="0" class="st6 st7">  </tspan></text>
<text transform="matrix(0.9888 -0.1493 0.1493 0.9888 799.9833 156.9852)" class="st6 st7">  cedar Grove rd</text>
<text transform="matrix(0.9821 -0.1885 0.1885 0.9821 526.4609 209.5551)" class="st6 st7">  monora park dr</text>
<text transform="matrix(0.9821 -0.1885 0.1885 0.9821 145.0896 281.4433)" class="st6 st7">  monora park dr</text>
<text transform="matrix(0.2083 0.9781 -0.9781 0.2083 320.253 274.6241)" class="st6 st7">  monora park dr</text>
<text transform="matrix(0.2397 0.9708 -0.9708 0.2397 135.8253 329.1428)" class="st6 st7">  watermark living</text>
<text transform="matrix(0.988 -0.1542 0.1542 0.988 556.5734 558.0981)" class="st6 st7">  monora park pavillion dr</text>
<text transform="matrix(0.2069 0.9784 -0.9784 0.2069 290.8355 126.6675)" class="st6 st7">  kingfisher dr</text>
<g>
	
		<rect x="779" y="171.7" transform="matrix(0.9637 0.2668 -0.2668 0.9637 87.8174 -211.6072)" class="st8" width="87" height="91.3"/>
	<polygon class="st9" points="792.8,161.7 852.3,272.9 876.7,185 	"/>
	<text transform="matrix(0.4523 0.8918 -0.8918 0.4523 792.8231 172.7354)" class="st1 st6 st10">The lube king</text>
</g>
</svg>
