<?xml version="1.0" encoding="utf-8"?>
<!-- Generator: Adobe Illustrator 19.2.0, SVG Export Plug-In . SVG Version: 6.00 Build 0)  -->
<svg version="1.1" id="Layer_1" xmlns="http://www.w3.org/2000/svg" xmlns:xlink="http://www.w3.org/1999/xlink" x="0px" y="0px"
	 viewBox="0 0 62 82" style="enable-background:new 0 0 62 82;" xml:space="preserve">
<style type="text/css">
	.st0{opacity:0.28;fill:url(#SVGID_1_);}
	.st1{fill:#D1C3AA;}
	.st2{fill:#8C57A3;}
	.st3{fill:#231F20;}
	.st4{fill:#662D91;}
</style>
<g>
	<linearGradient id="SVGID_1_" gradientUnits="userSpaceOnUse" x1="32.8406" y1="82.0741" x2="32.8406" y2="21.8166">
		<stop  offset="0" style="stop-color:#FFFFFF"/>
		<stop  offset="1" style="stop-color:#4D4D4D"/>
	</linearGradient>
	<polygon class="st0" points="3.7,30 30.2,82.1 62,67.8 35.4,21.8 	"/>
	<path class="st1" d="M18.2,16.7c0,0-1.3,2.5-1.1,5c-0.1,0.8-1.7,1.7-0.4,2.6c1.2,1.2,4.3,4.5,5.1,4.3
		C21.1,27.4,18.2,16.7,18.2,16.7z"/>
	<path class="st2" d="M33.8,13.3c0,0-3.6-12.5-9.5-13.2C21.9,0,17.1,0.9,17,6.7l0.2,10C17.1,16.7,24.2,7,33.8,13.3z"/>
	<path class="st3" d="M18.1,15.2c3-2.5,10.7-7.6,17.2-0.5c0.5,0.5,0.9,1.2,1.1,1.9c0.9,2.9,1.8,8.7-3.4,11.9c-1.7,1-3.6,1.5-5.6,1.5
		l-3.9,0c-1.4,0-2.7-0.8-3.4-2.2c-1.2-2.7-2.6-6.9-3.1-9.6C16.8,17.1,17.3,16,18.1,15.2z"/>
	<path class="st4" d="M17,6.7c0,0-4.2,0.5-5.2,2.1c-0.5-0.7-4-3.5-4-3.5s7.3-5.1,14-5.2l2.5,0C24.3,0.1,16.9-0.3,17,6.7z"/>
	<path class="st2" d="M17,10.5c0,0-8.7,5-6.9,12.6c0.1,0.8,7.1-1.3,7.1-1.3l0-5L17,10.5z"/>
	<path class="st2" d="M36.3,24.8c0,0,3.5,17.9-4,19c-0.3,0.1-0.7,0-1,0c-1.2-0.2-3.8-0.9-5.6-3.3c-0.5-0.7-0.7-1.5-0.7-2.3
		c0-4.1,0.3-8.1,0.3-8.1S34,30.8,36.3,24.8z"/>
	<path class="st4" d="M25,39c0,0,2.2,5.7,8.4,4.4c-2.6,1.7-9.6,5.2-18.8,4.5c-0.2-1.1-0.4-4.9-0.4-4.9S18.4,44.4,25,39z"/>
	<path class="st2" d="M17.9,25.6l2.2,2.3c0,0,0.5,1.6,1.9,1.9s3.4,0.3,3.4,0.3L25,39c0,0-1.4,1-4.1,0.4c-2.1-0.5-4.5,0.2-9.3-9.9"/>
	<path class="st3" d="M14.3,12.1c0,0-9.4,4.1-6.5,12.2c3.5,7.5,6.3,15.2,9.7,16.3c3.3,0.4,4.7,0.4,4.7,0.4l2.8-2
		c0,0-4.1,1.9-7.9-1.1c-3-2.9-5.4-8.4-5.4-8.4l4.6-2.5c0,0,1.5-1.1,1.5-1.4c-0.3-0.3-1.2-1.2-1.2-1.2s-0.8-0.7-0.5-1
		c0.2-0.4,0.9-1.6,0.9-1.6s-4.7,1.5-5.4,1.4c-0.7,0.1-1.6,0.6-1.7-0.4c-0.1-1-0.3-2.6,0.1-3.9c0.3-1.1,1.1-3.2,2.5-4.6
		s2.1-2.1,2.1-2.1l2.3-1.6L14.3,12.1z"/>
	<path class="st3" d="M8.5,25.7l-7.4,3.8c0,0-2.5,1.8,0,3.1c2.6,0.9,7.4,0,7.4,0l2.4-1.5"/>
	<path class="st1" d="M14.7,48c0,0-0.2,0.5-1.2,0.1s-3.7-3.4-3.7-3.4l1.1-3.7l3.4,2.1L14.7,48z"/>
	<path class="st1" d="M8.6,5.9c0,0-2.2,2.7,0.4,3.7c1.2,0.2,2.9-0.8,2.9-0.8L8.6,5.9z"/>
</g>
</svg>
