<?xml version="1.0" encoding="utf-8"?>
<!-- Generator: Adobe Illustrator 19.2.0, SVG Export Plug-In . SVG Version: 6.00 Build 0)  -->
<svg version="1.1" id="Layer_1" xmlns="http://www.w3.org/2000/svg" xmlns:xlink="http://www.w3.org/1999/xlink" x="0px" y="0px"
	 viewBox="0 0 5 8" style="enable-background:new 0 0 5 8;" xml:space="preserve">
<style type="text/css">
	.st0{fill:#FFFFFF;}
</style>
<g>
	<path d="M2.5,0.2l1.9,3.7c0.2,0.5,0.4,1,0.4,1.5c0,0.8-0.4,1.9-1.9,2.3c-0.1,0-0.3,0.1-0.4,0l0,0c-0.1,0-0.2,0-0.2,0
		c-1.6-0.4-2-1.5-2-2.4c0-0.5,0.1-1.1,0.4-1.5L2.5,0.2"/>
	<path class="st0" d="M2.8,1.9l0.7,1.3c0.1,0.2,0.2,0.4,0.2,0.6c0.1,0.3,0.1,0.8-0.2,1c0,0,0,0-0.1,0l0,0c0,0,0,0-0.1,0
		C3.1,4.8,2.9,4.4,2.8,4.1c0-0.2-0.1-0.4-0.1-0.6L2.8,1.9"/>
</g>
</svg>
