<?xml version="1.0" encoding="utf-8"?>
<!-- Generator: Adobe Illustrator 19.2.0, SVG Export Plug-In . SVG Version: 6.00 Build 0)  -->
<svg version="1.1" id="Layer_1" xmlns="http://www.w3.org/2000/svg" xmlns:xlink="http://www.w3.org/1999/xlink" x="0px" y="0px"
	 viewBox="0 0 1163 477" style="enable-background:new 0 0 1163 477;" xml:space="preserve">

<path class="st0" d="M814.8,271.1c0,0-14.1,1.9-35.5,1.7c-1.8,0-3.6-0.3-5.3-0.8c-2.6-0.8-5.1-2.4-5.5-8.9c0-0.5,0-1.1,0-1.6
	l0.2-16.4c0.1-4.8-1.4-9.4-4.3-13.2c-8.3-11.1-29.2-32-69.6-30.7c-17,1-54.8,10.1-65.2,37.5"/>
<path class="st0" d="M220,284c0.2-6,0.4-15.2,0.5-19.6c0.8-25.3,19.2-47,44.3-51c18.6-3,34.1,3.1,34.1,3.1s31.9,7.3,34.9,55
	c-0.3,8.7,0,14,0,14s0.3,4.3,6.4,7.5c1.3,0.7,2.8,0.9,4.3,0.9c25.8,0.4,262.8,1.8,283.9,2c1,0,1.9-0.4,2.6-1l0.7-0.6
	c1.6-1.4,2.4-3.5,2.3-5.6c-0.5-12.5,0.2-57.2,36.2-72.1c0,0,43.5-16.9,72.1,19.8c0.8,1.1,1.5,2.3,2.1,3.5
	c5.1,11.3,10.5,24.5,8.7,45.3"/>
<path class="st0" d="M755.8,297.5"/>
<path class="st0" d="M815.8,256.4"/>
<circle class="st0" cx="694.4" cy="272.5" r="50"/>
<circle class="st0" cx="694.4" cy="272.5" r="39.5"/>
<circle class="st0" cx="694.4" cy="272.5" r="5.9"/>
<path class="st0" d="M698.7,233.2l8.6,1.9l-5.5,23.3c0,0-0.8,7.6,5.5,8.1c7.3-0.1,25.8-1.9,25.8-1.9l0.8,7.8l-26.3,2.7
	c0,0-5.8,1.6-3.8,7.8c2,6.2,9.8,24.1,9.8,24.1l-7.2,3.1l-10.8-23.4c0,0-2.9-6.1-9.8-1.3c-6.6,5.1-18.3,16-18.3,16L662,295l18.8-16.6
	c0,0,6.8-6-1.5-9.8c-6.3-4.2-20.6-12.9-20.6-12.9l4.5-7.3l21.8,12.8c0,0,6.5,3.3,8.3-3.4C695.1,251,698.7,233.2,698.7,233.2z"/>
<path class="st0" d="M684.9,261.2c0,0,5.6,3.4,7.7-1.8c-2.8-5.5-10.9-24.3-10.9-24.3l-6.8,3L684.9,261.2"/>
<path class="st0" d="M721.7,244l4.9,5.7l-19.4,16.8c0,0-5.6-1.1-5.4-5.3C705.8,258.1,721.7,244,721.7,244z"/>
<path class="st0" d="M729.7,290.3l-3.9,6.2l-21.9-13.6c0,0-1.5-5.8,2.8-7.3C709.9,278.2,729.7,290.3,729.7,290.3z"/>
<path class="st0" d="M682.4,310.1l5.3-25.9c0,0,5.1-2.5,7.1,1.4c-0.9,4.2-5.8,26-5.8,26L682.4,310.1z"/>
<path class="st0" d="M654.9,272.5l0.8,8.1l25-2.2c0,0,5.5-5.1,1.4-7.9C677,270.9,654.9,272.5,654.9,272.5z"/>
<circle class="st0" cx="277" cy="271.6" r="50"/>
<circle class="st0" cx="277" cy="271.6" r="39.5"/>
<circle class="st0" cx="277" cy="271.6" r="5.9"/>
<path class="st0" d="M281.3,232.4l8.6,1.9l-5.5,23.3c0,0-0.8,7.6,5.5,8.1c7.3-0.1,25.8-1.9,25.8-1.9l0.8,7.8l-26.3,2.7
	c0,0-5.8,1.6-3.8,7.8c2,6.2,9.8,24.1,9.8,24.1l-7.2,3.1l-10.8-23.4c0,0-2.9-6.1-9.8-1.3c-6.6,5.1-18.3,16-18.3,16l-5.5-6.3
	l18.8-16.6c0,0,6.8-6-1.5-9.8c-6.3-4.2-20.6-12.9-20.6-12.9l4.5-7.3l21.8,12.8c0,0,6.5,3.3,8.3-3.4
	C277.7,250.2,281.3,232.4,281.3,232.4z"/>
<path class="st0" d="M267.5,260.4c0,0,5.6,3.4,7.7-1.8c-2.8-5.5-10.9-24.3-10.9-24.3l-6.8,3L267.5,260.4"/>
<path class="st0" d="M304.4,243.2l4.9,5.7L290,265.7c0,0-5.6-1.1-5.4-5.3C288.5,257.3,304.4,243.2,304.4,243.2z"/>
<path class="st0" d="M312.3,289.5l-3.9,6.2l-21.9-13.6c0,0-1.5-5.8,2.8-7.3C292.6,277.4,312.3,289.5,312.3,289.5z"/>
<path class="st0" d="M265.1,309.3l5.3-25.9c0,0,5.1-2.5,7.1,1.4c-0.9,4.2-5.8,26-5.8,26L265.1,309.3z"/>
<path class="st0" d="M237.5,271.6l0.8,8.1l25-2.2c0,0,5.5-5.1,1.4-7.9C259.6,270.1,237.5,271.6,237.5,271.6z"/>
<line class="st0" x1="333.8" y1="271.4" x2="634" y2="277.6"/>
<line class="st0" x1="633.4" y1="291.6" x2="648.2" y2="291.6"/>
<path class="st0" d="M535.2,101.3c48.8,8.5,130.8,46.7,139,51.4c8.6,4.7,11.1,3.1,14.2,3.2c2.8-0.7,4-0.7,5.2,0
	c0,0,5.3,1.9,11.6-1.9c0,0,87.8-48.8,107.4-45.6c0,0,4,1.7-3.5,2.9s-32.7,6.6-103.1,47.7c0,0-1.9,2.7-9.4,2.2"/>
<path class="st0" d="M806.7,211.5"/>
<path class="st0" d="M808.3,213.5"/>
<path class="st0" d="M741.7,288.7"/>
<path class="st0" d="M759.2,289.1"/>
<path class="st0" d="M753,285"/>
<path class="st0" d="M814.8,246.5"/>
<path class="st1" d="M805.5,219"/>
<path class="st0" d="M220.1,153.7"/>
<path class="st0" d="M455.1,189h-32c-2.1,0-3.8-1.7-3.8-3.8l0,0c0-2.1,1.7-3.8,3.8-3.8h32c2.1,0,3.8,1.7,3.8,3.8l0,0
	C459,187.2,457.3,189,455.1,189z"/>
<line class="st0" x1="323.7" y1="289.7" x2="336" y2="289.7"/>
<path class="st0" d="M640.8,154c0,0-13.6,4.8-9.6,10.8c3,6.3,7.8,11.7,2.2,54.7c-4.6,23.3-9.9,53.6-17.2,57.8"/>
<path class="st0" d="M345.1,271.6c0,0-2.2-47.4-37.4-64.1c0,0-16.4-12.2-55.8-4.2c-8.4,2-31.2,7.8-40.9,19.8
	c-2.2,3.2-5.2,6.8-5,16.8c0,7.5,0,14.8,0,18.2c0,1.3-0.5,2.5-1.5,3.4l-3.5,3.2c-0.8,0.7-1.9,1.2-3,1.2h-11.5"/>
<path class="st0" d="M199.7,265.7c0,0,7.1,16.5,15.1,18.5"/>
<path class="st0" d="M290.8,146.8"/>
<path class="st0" d="M189.6,256.8c0,0,7.4,2.2,9.5-3.9c1.2-5.1,4.8-16.5-1.6-18.6c-4.5-0.4-4.5-0.4-4.5-0.4"/>
<path class="st0" d="M411.3,230.4l-66.2-1.9c0,0-8.4-12.4,3.3-11.7c11.8,0.7,60.5,3.6,60.5,3.6L621,231.8c1.4,0.1,2.4,1.4,2,2.7
	c-0.4,1.8-2.4,3.9-9,4.1C602.7,238.2,411.3,230.4,411.3,230.4z"/>
<path class="st0" d="M345.1,228.5c0,0,4.8,8.8,13.6,19.8c8.8,11,18,9.8,18,9.8h45.4l202.1,3.1"/>
<path class="st0" d="M422.2,259.7"/>
<path class="st0" d="M810.7,233.7h-14.1c-7.3,0-13.3,5.9-13.3,13.3l0,0c0,5,4,9,9,9l22.8,0.4"/>
<path class="st0" d="M206.7,178.3h14.1c7.3,0,13.3,5.9,13.3,13.3l0,0c0,5-4,9-9,9l-22.8,0.4"/>
<path class="st0" d="M415,162.8c0,0-10.5,5.2-10.5,16.4s5.3,69.3,25.8,94.1"/>
<path class="st0" d="M226.4,179.6c0,0,7.8-13.8,67.8-13.8s51-9.3,51-9.3"/>
<path class="st0" d="M290.8,146.8"/>
<path class="st0" d="M755.8,297.5"/>
<path class="st0" d="M227.8,280.5c-2,1.7-5.1,2.9-7.8,3.5h-0.1c-2.5,0.6-5,0.5-7.5-0.2c-9.1-2.7-13.5-5.2-21-10.5
	c-6.6-5.6-5.1-10.5-3.9-13c0.4-0.7,0.9-1.4,1.4-2c0.9-1,0.8-2.3-0.1-2.9c-2.3-2.7-1.9-5.3-1.7-7.9c0.1-1.4,0.4-2.8,1-4.1
	c1.7-4.1,4.8-9.5,4.8-9.5s0,0,0-3.2c-0.2-3.6,3.1-11,5.5-15.5c0.7-1.3,1.6-2.6,2.6-3.7c1.7-1.8,1.6-3.3,1.6-3.3v-6.8
	c0,0,1-6.8,1.8-11.2c0.2-1,0.5-2,0.9-2.9c1.1-2.7,0.4-4.4,0.4-6.6c1.5-9.9,4.5-11.9,4.5-11.9s3.4-2.2,5.5-4.5
	c2.1-1.8,2.5-5.1,2.5-5.1l0.8-3.8l0.4-0.7c0.5-0.9,1.4-1.6,2.5-1.7c0.9-0.1,1.5,0.1,2,0.5c1.3,1.1,2.9,1.7,4.6,1.5l47.5-6.3
	c4.9-0.7,10-0.2,14.4,1.9c2.8,1.3,8.7,1.4,8.7,1.4l312.2,29.3c0,0,77.7,9.4,112.9,14.6c7,1,13.9,2.7,20.6,4.9
	c23.9,7.8,42.7,10.6,51,11.5c2.5,0.3,5.8,1.4,8.4,1.3c1.1,0,2.3,0.3,3.1,1c0.5,0.5,1,1.2,0.9,2c-0.6,5.4,9.2,32.9,6.4,54.4
	c-1.9,14.3-35.9,16.2-50,17.5c-0.7,0.1-1.3,0.1-2,0.2c-9.5,1.3-9.8-3.8-9.8-3.8"/>
<path class="st0" d="M810.9,277.8l-2.5,2.8c0,0-10.2,14.2-23.4,15.2c-10.6,0.8-23.1,1.5-27.5,1.7c-1.6,0.1-3.2-0.6-4.2-1.9
	c-1-1.4-1.4-3.6,0.8-6.9l0.9-0.8"/>
<line class="st0" x1="741.7" y1="288.7" x2="753.4" y2="287"/>
<path class="st0" d="M577.8,178.2l-18.3-13l-5.2-3.2l6-15.2c0,0,1.4-3.5-3-3.8c-1.4,0.2-1.9,0-3,2c-0.8,1.7-5.3,13.2-7.6,19
	c-0.8,2-2.8,3.2-4.9,3l-83.5-7.1c-2.6-0.2-5-1.3-6.9-2.9l-4.3-3.8c0,0-1.1-1,0.6-1.6c2-1.8,6.5-6.1-1.9-21.1
	c-3.5-5.5-6.2-8.9-13.9-7c-3,1.4-6.3,1-6.2,13.9c-0.1,5.2-0.1,8.8,0.1,11.2s2,4.5,4.3,5c0.1,0,0.1,0,0.1,0s-0.4,0.2-1,0.5
	c-2.7,1.5-3.6,4.8-2.2,7.5c0.8,1.4,1.5,2.5,1.5,2.5"/>
<path class="st0" d="M595,175.7l11.3,0.9c1.5,0.1,3-0.1,4.4-0.6c10.4-3.9-3.2-16.1-17.7-27.6c-22.9-17.5-71.7-29.1-84-31.4
	c-1.4-0.3-2.7-0.9-3.6-2c-3-3.5-1.4-8.6,0.2-11.9c1-2.1,3.1-3.5,5.4-3.6c4.9-0.2,14.3-0.3,24.3,1.8l-3.7,2.6c-1.2,0.9-1,2.7,0.4,3.2
	l120,51.6c0.5,0.2,1.1,0.4,1.6,0.5c3.9,1,19.5,4.1,34.9-3.4c37.4,28.1,106.5,30.8,118.8,58.8"/>
<path class="st0" d="M425.7,145.2c0,0-14.7,5.5-29.7,3.3c-15.5-1.2-59.3-10.2-86.7-6.7c-13.3,2-24.7,7.1-24.7,7.1"/>
<path class="st2" d="M594.4,146.6c-1.3-0.6-2.7-0.8-4.2-0.7c-4.8,0.2-13.4,2.2-16.7,13.3c0,0-2.8,9.2,2.2,12c4.5,1.2,13,0.2,13,0.2
	s2.8-1,3.8,1.8c0.7,1.4,1,3.8,0.6,5.8c-0.6,3,0.6,6.2,3.4,7.6c1.1,0.5,2.5,0.9,4.2,0.9h15.5l-11.5-28.2c-0.3-0.8-0.7-1.7-0.9-2.5
	C603.1,154.7,600.9,149.4,594.4,146.6z"/>
<circle class="st3" cx="718.5" cy="312" r="7.5"/>
<circle class="st3" cx="214.8" cy="236.9" r="7.5"/>
<circle class="st3" cx="810.9" cy="244" r="7.5"/>
<circle class="st3" cx="658.6" cy="145" r="7.5"/>
<line class="st4" x1="724.1" y1="324.4" x2="728.1" y2="330.9"/>
<line class="st4" x1="732.5" y1="337.4" x2="736.4" y2="343.9"/>
<line class="st4" x1="741.2" y1="350.5" x2="745.1" y2="357"/>
<line class="st4" x1="749.8" y1="363.9" x2="753.8" y2="370.4"/>
<line class="st4" x1="757.1" y1="376.8" x2="761" y2="383.3"/>
<line class="st4" x1="827.2" y1="245.1" x2="834.8" y2="245.1"/>
<line class="st4" x1="841.8" y1="245" x2="849.4" y2="245.1"/>
<line class="st4" x1="856.6" y1="244.9" x2="864.2" y2="245"/>
<line class="st4" x1="871.5" y1="244.7" x2="879.1" y2="244.8"/>
<line class="st4" x1="886.5" y1="244.5" x2="894.1" y2="244.5"/>
<line class="st4" x1="750.8" y1="189.4" x2="757.8" y2="186.6"/>
<line class="st4" x1="765.6" y1="182.9" x2="772.7" y2="180.1"/>
<line class="st4" x1="777.9" y1="178.3" x2="785" y2="175.5"/>
<line class="st4" x1="791.7" y1="172.5" x2="798.8" y2="169.7"/>
<line class="st4" x1="805.5" y1="166.7" x2="812.6" y2="163.9"/>
<line class="st4" x1="901.6" y1="244.7" x2="909.2" y2="244.7"/>
<line class="st4" x1="916.2" y1="244.8" x2="923.8" y2="244.8"/>
<line class="st4" x1="930.9" y1="245.1" x2="938.6" y2="245.1"/>
<line class="st4" x1="945.8" y1="245.1" x2="953.4" y2="245.1"/>
<line class="st4" x1="80.3" y1="283.9" x2="87.5" y2="281.5"/>
<line class="st4" x1="94" y1="279.1" x2="101.3" y2="276.7"/>
<line class="st4" x1="108" y1="274.3" x2="115.2" y2="271.9"/>
<line class="st4" x1="122.1" y1="269.3" x2="129.3" y2="266.9"/>
<line class="st4" x1="136.2" y1="264.2" x2="143.4" y2="261.8"/>
<line class="st4" x1="150.6" y1="259.5" x2="157.8" y2="257.1"/>
<line class="st4" x1="164.4" y1="254.9" x2="171.6" y2="252.5"/>
<line class="st4" x1="178.5" y1="250.4" x2="185.7" y2="248"/>
<line class="st4" x1="192.6" y1="245.6" x2="199.8" y2="243.2"/>
<g>
	<text transform="matrix(1 0 0 1 773.9608 395.7996)" class="st5 st6 st7">tire changes</text>
</g>
<g>
	<text transform="matrix(1 0 0 1 476.6835 472.2961)" class="st5 st6 st7">oil changes</text>
</g>
<g>
	<text transform="matrix(1 0 0 1 827.2183 168.0414)" class="st5 st6 st7">Fluid Replacements</text>
</g>
<g>
	<text transform="matrix(1 0 0 1 764.5389 35.2604)" class="st5 st6 st7">WindSheild Wiper </text>
	<text transform="matrix(1 0 0 1 764.5389 61.6604)" class="st5 st6 st7">replacement</text>
</g>
<g>
	<text transform="matrix(1 0 0 1 50.3246 19.1362)" class="st5 st6 st7">taillight </text>
	<text transform="matrix(1 0 0 1 50.3246 45.5362)" class="st5 st6 st7">replacements</text>
</g>
<g>
	<text transform="matrix(1 0 0 1 50.3247 313.7108)" class="st5 st6 st7">Rust </text>
	<text transform="matrix(1 0 0 1 50.3247 340.1108)" class="st5 st6 st7">Proofing</text>
</g>
<circle class="st3" cx="202.8" cy="190.5" r="7.5"/>
<line class="st4" x1="131.2" y1="69.4" x2="135" y2="76"/>
<line class="st4" x1="124" y1="57.6" x2="127.7" y2="64.2"/>
<line class="st4" x1="138.6" y1="81.9" x2="142.3" y2="88.5"/>
<line class="st4" x1="146.1" y1="94.7" x2="149.8" y2="101.3"/>
<line class="st4" x1="153.7" y1="107.5" x2="157.5" y2="114.1"/>
<line class="st4" x1="161.4" y1="120.3" x2="165.2" y2="126.9"/>
<line class="st4" x1="168.9" y1="133.6" x2="172.6" y2="140.2"/>
<line class="st4" x1="176.1" y1="146.2" x2="179.9" y2="152.8"/>
<line class="st4" x1="183.2" y1="159.1" x2="187" y2="165.7"/>
<line class="st4" x1="190.6" y1="172" x2="194.4" y2="178.6"/>
<line class="st4" x1="576.6" y1="323.4" x2="574.2" y2="330.6"/>
<line class="st4" x1="580.6" y1="310.1" x2="578.2" y2="317.3"/>
<line class="st4" x1="572.1" y1="337.2" x2="569.6" y2="344.4"/>
<line class="st4" x1="567.5" y1="351.3" x2="565.1" y2="358.5"/>
<line class="st4" x1="563" y1="365.5" x2="560.6" y2="372.7"/>
<line class="st4" x1="558.5" y1="379.8" x2="556.1" y2="387"/>
<line class="st4" x1="553.6" y1="394.1" x2="551.1" y2="401.3"/>
<line class="st4" x1="548.9" y1="407.9" x2="546.5" y2="415.1"/>
<line class="st4" x1="544" y1="421.8" x2="541.5" y2="429"/>
<line class="st4" x1="539.3" y1="435.9" x2="536.8" y2="443.1"/>
<g>
	<text transform="matrix(1 0 0 1 965.9606 248.6393)" class="st5 st6 st7">HeadLight </text>
	<text transform="matrix(1 0 0 1 965.9606 275.0393)" class="st5 st6 st7">Replacements </text>
</g>
<path class="st0" d="M693.6,155.9"/>
<line class="st4" x1="668.7" y1="134.1" x2="673.6" y2="128.3"/>
<line class="st4" x1="677.9" y1="122.9" x2="682.8" y2="117"/>
<line class="st4" x1="687.2" y1="111.3" x2="692.1" y2="105.5"/>
<line class="st4" x1="696.5" y1="99.7" x2="701.4" y2="93.8"/>
<line class="st4" x1="705.9" y1="88" x2="710.7" y2="82.1"/>
<line class="st4" x1="715.6" y1="76.3" x2="720.5" y2="70.5"/>
<line class="st4" x1="724.9" y1="65.1" x2="729.8" y2="59.3"/>
<line class="st4" x1="734.5" y1="53.9" x2="739.4" y2="48.1"/>
<line class="st4" x1="744" y1="42.4" x2="748.8" y2="36.6"/>
<path class="st3" d="M741.8,191.6c-4-1.1-8.1,1.2-9.2,5.2l14.4,4C748.1,196.8,745.8,192.7,741.8,191.6z"/>
<path class="st3" d="M583.8,303.5c4.1,0,7.5-3.4,7.5-7.5l-15,0.1C576.3,300.1,579.7,303.5,583.8,303.5z"/>
<polyline class="st0" points="756.8,131.3 764.2,187.5 761.4,186.6 754.3,132.5 "/>
</svg>
