<?xml version="1.0" encoding="utf-8"?>
<!-- Generator: Adobe Illustrator 19.2.0, SVG Export Plug-In . SVG Version: 6.00 Build 0)  -->
<svg version="1.1" id="Layer_1" xmlns="http://www.w3.org/2000/svg" xmlns:xlink="http://www.w3.org/1999/xlink" x="0px" y="0px"
	 viewBox="0 0 905 291" style="enable-background:new 0 0 905 291;" xml:space="preserve">
<style type="text/css">
	.st0{fill:#754C29;}
	.st1{fill:#C2B59B;}
	.st2{fill:#A97C50;}
	.st3{fill:#422611;}
	.st4{opacity:0.18;fill:#231F20;}
	.st5{fill:#C12030;}
	.st6{fill:#D2D3D4;}
	.st7{fill:#231F20;}
	.st8{fill:#9E1C23;}
	.st9{fill:none;}
	.st10{fill:#FFFFFF;}
	.st11{opacity:0.12;fill:#231F20;}
	.st12{stroke:#000000;stroke-miterlimit:10;}
	.st13{fill:#8C56A3;}
	.st14{fill:#BFB8AC;}
	.st15{fill:#EFEFEF;}
	.st16{fill:#FFF200;}
	.st17{opacity:0.21;fill:#231F20;}
	.st18{fill:#C49A6C;}
</style>
<rect x="782.6" y="38.9" class="st0" width="60" height="24.6"/>
<rect x="752.6" y="64.8" class="st1" width="60" height="24.6"/>
<rect x="782.6" y="91.4" class="st2" width="60" height="24.6"/>
<rect x="752.6" y="118.1" class="st1" width="60" height="24.6"/>
<rect x="814.5" y="65.2" class="st2" width="60" height="24.6"/>
<rect x="814.5" y="117.7" class="st0" width="60" height="24.6"/>
<rect x="61.6" y="98.1" class="st0" width="60" height="24.6"/>
<rect x="30" y="72" class="st2" width="60" height="24.6"/>
<rect y="97.8" class="st1" width="60" height="24.6"/>
<rect x="67.1" y="150.5" class="st2" width="60" height="24.6"/>
<rect x="30" y="124.4" class="st2" width="60" height="24.6"/>
<rect x="4.7" y="150" class="st1" width="60" height="24.6"/>
<rect x="91.6" y="72" class="st1" width="60" height="24.6"/>
<rect x="154.4" y="124.6" class="st2" width="60" height="24.6"/>
<rect x="123.1" y="98.3" class="st2" width="60" height="24.6"/>
<rect x="92.9" y="124.3" class="st1" width="60" height="24.6"/>
<rect x="34.7" y="244" class="st3" width="825.2" height="25"/>
<rect x="103.4" y="269" class="st4" width="700.1" height="25"/>
<path class="st5" d="M339.5,244H109c-0.6,0-1-0.5-1-1V114.5c0-0.5,0.4-1,1-1h230.5c0.5,0,1,0.5,1,1V243
	C340.5,243.6,340.1,244,339.5,244z"/>
<rect x="263.8" y="110" class="st6" width="23" height="3.5"/>
<rect x="161.8" y="110" class="st6" width="23" height="3.5"/>
<rect x="167.8" y="85.9" class="st7" width="10.2" height="24.1"/>
<rect x="270.2" y="85.9" class="st7" width="10.2" height="24.1"/>
<rect x="167.8" y="85.9" class="st7" width="112.5" height="10.3"/>
<rect x="125.5" y="147" class="st8" width="197.3" height="96.5"/>
<line class="st9" x1="108" y1="143.6" x2="340.5" y2="143.6"/>
<line class="st9" x1="119.7" y1="119.9" x2="155" y2="119.9"/>
<line class="st9" x1="119.7" y1="122.9" x2="148.2" y2="122.9"/>
<line class="st9" x1="116.1" y1="122.9" x2="116.1" y2="119.9"/>
<path class="st6" d="M144.8,144.4c0,0-7.1,0-9.5,0c-2.2,0.2-2.1,2.3-2.1,2.3v10.2c0,0.3,0.1,0.6,0.3,0.9c0.2,0.3,0.5,0.6,0.9,0.8
	c0.2,0.1,0.4,0.3,0.4,0.6c0.4,1.8,1.7,7,2,8.4c0.1,0.5,0.4,0.9,0.9,1.1c0.3,0.2,0.8,0.2,1.4,0.3h5.1"/>
<path class="st6" d="M143.5,144.4c0,0,7.1,0,9.5,0c2.2,0.2,2.1,2.3,2.1,2.3v10.2c0,0.3-0.1,0.6-0.3,0.9c-0.2,0.3-0.5,0.6-0.9,0.8
	c-0.2,0.1-0.4,0.3-0.4,0.6c-0.4,1.8-1.7,7-2,8.4c-0.1,0.5-0.4,0.9-0.9,1.1c-0.3,0.2-0.8,0.2-1.4,0.3h-5.1"/>
<g>
	<g id="XMLID_27_">
		<g>
			<ellipse class="st10" cx="151.4" cy="154.3" rx="2.6" ry="2.6"/>
			<path class="st10" d="M154.1,154.3c0-1.4-1.2-2.6-2.6-2.6s-2.6,1.2-2.6,2.6c0,1.4,1.2,2.6,2.6,2.6S154.1,155.8,154.1,154.3z
				 M151.4,151.5c1.6,0,2.9,1.3,2.9,2.9c0,1.6-1.3,2.9-2.9,2.9s-2.9-1.3-2.9-2.9C148.5,152.7,149.8,151.5,151.4,151.5z"/>
		</g>
		<g>
		</g>
	</g>
</g>
<ellipse class="st7" cx="151.4" cy="154.3" rx="2.2" ry="2.2"/>
<g>
	<g id="XMLID_26_">
		<g>
			<ellipse class="st10" cx="136.8" cy="154.3" rx="2.6" ry="2.6"/>
			<path class="st10" d="M139.5,154.3c0-1.4-1.2-2.6-2.6-2.6c-1.5,0-2.6,1.2-2.6,2.6c0,1.4,1.2,2.6,2.6,2.6
				C138.3,157,139.5,155.8,139.5,154.3z M136.8,151.5c1.6,0,2.9,1.3,2.9,2.9c0,1.6-1.3,2.9-2.9,2.9c-1.6,0-2.9-1.3-2.9-2.9
				C134,152.7,135.2,151.5,136.8,151.5z"/>
		</g>
		<g>
		</g>
	</g>
</g>
<ellipse class="st7" cx="136.8" cy="154.3" rx="2.2" ry="2.2"/>
<path class="st9" d="M139.7,142.5v13c0,0,0.1,1.2,1,1.7"/>
<path class="st9" d="M148.5,142.5v13c0,0-0.1,1.2-1,1.7"/>
<path class="st6" d="M141,153.6l-0.9,3.7c-0.1,0.2-0.1,0.4-0.1,0.6v6.7c0,0,0,2.7,0.3,4.8c0,0.3,0.2,0.5,0.5,0.6
	c0.4,0.2,1.3,0.3,2.8,0.3h0.9c1.6,0,2.4-0.2,2.8-0.3c0.3-0.1,0.5-0.3,0.5-0.6c0.3-2.1,0.3-4.8,0.3-4.8v-6.7c0-0.2,0-0.4-0.1-0.6
	l-1-3.7"/>
<path class="st6" d="M140.8,135.4l1.9-1.3c0.2-0.1,0.4-0.2,0.6-0.2h2.1c0.2,0,0.4,0.1,0.6,0.2l1.8,1.3"/>
<g id="XMLID_25_">
	<g>
		<path class="st6" d="M155.1,134.8c0,0,0,4.6,0,6.2c0,1.5-1.9,1.5-1.9,1.5s-16.4,0-18.1,0c-0.7-0.1-1.1-0.5-1.4-0.9
			c-0.3-0.5-0.5-1-0.5-1.6l0-4.4c0,0-0.1-2.4,1.7-2.4c1.8,0,4,0,4,0c0.9,0,1.1,1.1,1.1,1.7c0,0.3,0.2,0.5,0.5,0.5h7.2
			c0.3,0,0.6-0.3,0.6-0.6c0-0.1,0-0.3,0-0.5c0-0.5,0.3-0.7,0.5-0.9c0.2-0.2,0.5-0.2,0.8-0.2c0.6,0,2.2,0,3.7,0
			C155.1,133.1,155.1,134.8,155.1,134.8z"/>
	</g>
	<g>
	</g>
</g>
<g>
	<g id="XMLID_24_">
		<g>
			<ellipse class="st10" cx="150.5" cy="137.8" rx="2.6" ry="2.6"/>
			<path class="st10" d="M153.2,137.8c0-1.4-1.2-2.6-2.6-2.6s-2.6,1.2-2.6,2.6c0,1.4,1.2,2.6,2.6,2.6S153.2,139.3,153.2,137.8z
				 M150.5,134.9c1.6,0,2.9,1.3,2.9,2.9s-1.3,2.9-2.9,2.9s-2.9-1.3-2.9-2.9S148.9,134.9,150.5,134.9z"/>
		</g>
		<g>
		</g>
	</g>
</g>
<ellipse class="st7" cx="150.5" cy="137.8" rx="2.2" ry="2.2"/>
<g>
	<g id="XMLID_23_">
		<g>
			<ellipse class="st10" cx="137.5" cy="137.8" rx="2.6" ry="2.6"/>
			<path class="st10" d="M140.1,137.8c0-1.4-1.2-2.6-2.6-2.6c-1.5,0-2.6,1.2-2.6,2.6c0,1.4,1.2,2.6,2.6,2.6
				C139,140.4,140.1,139.3,140.1,137.8z M137.5,134.9c1.6,0,2.9,1.3,2.9,2.9c0,1.6-1.3,2.9-2.9,2.9c-1.6,0-2.9-1.3-2.9-2.9
				C134.6,136.2,135.9,134.9,137.5,134.9z"/>
		</g>
		<g>
		</g>
	</g>
</g>
<ellipse class="st7" cx="137.5" cy="137.8" rx="2.2" ry="2.2"/>
<path class="st10" d="M144.1,159.4L144.1,159.4c-1.8,0-3.4-1.5-3.4-3.4v-16.4c0-1.8,1.5-3.4,3.4-3.4h0c1.8,0,3.4,1.5,3.4,3.4V156
	C147.5,157.9,146,159.4,144.1,159.4z"/>
<path class="st6" d="M144.1,158.6L144.1,158.6c-1.7,0-3.1-1.4-3.1-3.1v-15.3c0-1.7,1.4-3.1,3.1-3.1h0c1.7,0,3.1,1.4,3.1,3.1v15.3
	C147.3,157.2,145.8,158.6,144.1,158.6z"/>
<path class="st10" d="M142.5,145.2h3.2c0.5,0,0.8-0.4,0.8-0.8V140c0-1.5-1.4-2.7-2.9-2.5c0,0,0,0-0.1,0c-1.1,0.2-2,1.2-2,2.4v4.4
	C141.7,144.8,142,145.2,142.5,145.2z"/>
<path class="st11" d="M146.5,147.6h-4.7c0,0-0.1,0-0.1-0.1l0.1-0.3c0,0,0,0,0.1,0h4.4c0,0,0.1,0,0.1,0l0.2,0.3
	C146.6,147.5,146.5,147.6,146.5,147.6z"/>
<path class="st10" d="M144.1,156.2L144.1,156.2c-1.4,0-2.4-1.1-2.4-2.4v-2c0-1.4,1.1-2.4,2.4-2.4h0c1.4,0,2.4,1.1,2.4,2.4v2
	C146.6,155.1,145.5,156.2,144.1,156.2z"/>
<path class="st6" d="M307.5,144.5c0,0-7.1,0-9.5,0c-2.2,0.2-2.1,2.3-2.1,2.3v10.2c0,0.3,0.1,0.6,0.3,0.9c0.2,0.3,0.5,0.6,0.9,0.8
	c0.2,0.1,0.4,0.3,0.4,0.6c0.4,1.8,1.7,7,2,8.4c0.1,0.5,0.4,0.9,0.9,1.1c0.3,0.2,0.8,0.2,1.4,0.3h5.1"/>
<path class="st6" d="M306.2,144.5c0,0,7.1,0,9.5,0c2.2,0.2,2.1,2.3,2.1,2.3v10.2c0,0.3-0.1,0.6-0.3,0.9c-0.2,0.3-0.5,0.6-0.9,0.8
	c-0.2,0.1-0.4,0.3-0.4,0.6c-0.4,1.8-1.7,7-2,8.4c-0.1,0.5-0.4,0.9-0.9,1.1c-0.3,0.2-0.8,0.2-1.4,0.3h-5.1"/>
<g>
	<g id="XMLID_22_">
		<g>
			<ellipse class="st10" cx="314.2" cy="154.4" rx="2.6" ry="2.6"/>
			<path class="st10" d="M316.8,154.4c0-1.4-1.2-2.6-2.6-2.6s-2.6,1.2-2.6,2.6c0,1.4,1.2,2.6,2.6,2.6S316.8,155.9,316.8,154.4z
				 M314.2,157.3c-1.6,0-2.9-1.3-2.9-2.9s1.3-2.9,2.9-2.9s2.9,1.3,2.9,2.9S315.8,157.3,314.2,157.3z"/>
		</g>
		<g>
		</g>
	</g>
</g>
<ellipse cx="314.2" cy="154.4" rx="2.2" ry="2.2"/>
<g>
	<g id="XMLID_21_">
		<g>
			<ellipse class="st10" cx="299.6" cy="154.4" rx="2.6" ry="2.6"/>
			<path class="st10" d="M302.2,154.4c0-1.4-1.2-2.6-2.6-2.6s-2.6,1.2-2.6,2.6c0,1.4,1.2,2.6,2.6,2.6S302.2,155.9,302.2,154.4z
				 M299.6,151.5c1.6,0,2.9,1.3,2.9,2.9s-1.3,2.9-2.9,2.9c-1.6,0-2.9-1.3-2.9-2.9S298,151.5,299.6,151.5z"/>
		</g>
		<g>
		</g>
	</g>
</g>
<ellipse cx="299.6" cy="154.4" rx="2.2" ry="2.2"/>
<path class="st9" d="M302.5,142.5v13c0,0,0.1,1.2,1,1.7"/>
<path class="st9" d="M311.3,142.6v13c0,0-0.1,1.2-1,1.7"/>
<path class="st6" d="M303.8,153.7l-0.9,3.7c-0.1,0.2-0.1,0.4-0.1,0.6v6.7c0,0,0,2.7,0.3,4.8c0,0.3,0.2,0.5,0.5,0.6
	c0.4,0.2,1.3,0.3,2.8,0.3h0.9c1.6,0,2.4-0.2,2.8-0.3c0.3-0.1,0.5-0.3,0.5-0.6c0.3-2.1,0.3-4.8,0.3-4.8V158c0-0.2,0-0.4-0.1-0.6
	l-1-3.7"/>
<path class="st6" d="M303.5,135.4l1.9-1.3c0.2-0.1,0.4-0.2,0.6-0.2h2.1c0.2,0,0.4,0.1,0.6,0.2l1.8,1.3"/>
<g id="XMLID_20_">
	<g>
		<path class="st6" d="M317.8,134.9c0,0,0,4.6,0,6.2c0,1.5-1.9,1.5-1.9,1.5s-16.4,0-18.1,0c-0.7-0.1-1.1-0.5-1.4-0.9
			c-0.3-0.5-0.5-1-0.5-1.6l0-4.4c0,0-0.1-2.4,1.7-2.4c1.8,0,4,0,4,0c0.9,0,1.1,1.1,1.1,1.7c0,0.3,0.2,0.5,0.5,0.5h7.2
			c0.3,0,0.6-0.3,0.6-0.6c0-0.1,0-0.3,0-0.5c0-0.5,0.3-0.7,0.5-0.9c0.2-0.2,0.5-0.2,0.8-0.2c0.6,0,2.2,0,3.7,0
			C317.9,133.2,317.8,134.9,317.8,134.9z"/>
	</g>
	<g>
	</g>
</g>
<g>
	<g id="XMLID_19_">
		<g>
			<ellipse class="st10" cx="313.3" cy="137.9" rx="2.6" ry="2.6"/>
			<path class="st10" d="M310.6,137.9c0,1.4,1.2,2.6,2.6,2.6s2.6-1.2,2.6-2.6c0-1.4-1.2-2.6-2.6-2.6S310.6,136.4,310.6,137.9z
				 M310.4,137.9c0-1.6,1.3-2.9,2.9-2.9s2.9,1.3,2.9,2.9c0,1.6-1.3,2.9-2.9,2.9S310.4,139.5,310.4,137.9z"/>
		</g>
		<g>
		</g>
	</g>
</g>
<ellipse cx="313.3" cy="137.9" rx="2.2" ry="2.2"/>
<g>
	<g id="XMLID_18_">
		<g>
			<ellipse class="st10" cx="300.3" cy="137.9" rx="2.6" ry="2.6"/>
			<path class="st10" d="M302.9,137.9c0-1.4-1.2-2.6-2.6-2.6s-2.6,1.2-2.6,2.6c0,1.4,1.2,2.6,2.6,2.6S302.9,139.3,302.9,137.9z
				 M300.3,135c1.6,0,2.9,1.3,2.9,2.9s-1.3,2.9-2.9,2.9c-1.6,0-2.9-1.3-2.9-2.9S298.7,135,300.3,135z"/>
		</g>
		<g>
		</g>
	</g>
</g>
<ellipse cx="300.3" cy="137.9" rx="2.2" ry="2.2"/>
<path class="st10" d="M306.9,159.5L306.9,159.5c-1.8,0-3.4-1.5-3.4-3.4v-16.4c0-1.8,1.5-3.4,3.4-3.4l0,0c1.8,0,3.4,1.5,3.4,3.4v16.4
	C310.2,158,308.7,159.5,306.9,159.5z"/>
<path class="st6" d="M306.9,158.7L306.9,158.7c-1.7,0-3.1-1.4-3.1-3.1v-15.3c0-1.7,1.4-3.1,3.1-3.1l0,0c1.7,0,3.1,1.4,3.1,3.1v15.3
	C310,157.3,308.6,158.7,306.9,158.7z"/>
<path class="st10" d="M305.3,145.3h3.2c0.5,0,0.8-0.4,0.8-0.8v-4.3c0-1.5-1.4-2.7-2.9-2.5c0,0,0,0-0.1,0c-1.1,0.2-2,1.2-2,2.4v4.4
	C304.4,144.9,304.8,145.3,305.3,145.3z"/>
<path class="st11" d="M309.2,147.7h-4.7c0,0-0.1,0-0.1-0.1l0.1-0.3c0,0,0,0,0.1,0h4.4c0,0,0.1,0,0.1,0l0.2,0.3
	C309.3,147.6,309.3,147.7,309.2,147.7z"/>
<path class="st10" d="M306.9,156.3L306.9,156.3c-1.4,0-2.4-1.1-2.4-2.4v-2c0-1.4,1.1-2.4,2.4-2.4l0,0c1.4,0,2.4,1.1,2.4,2.4v2
	C309.3,155.2,308.2,156.3,306.9,156.3z"/>
<g>
	<path class="st6" d="M223.8,133.7h-11c-0.5,0-1,0.4-1,1v11.8c0,0.3,0.1,0.6,0.2,0.9l5.8,12.4c0.2,0.5,0.7,0.8,1.2,0.8l4.2,0.1h1
		l4.3-0.1c0.5,0,1-0.3,1.2-0.8l5.9-12.5c0.1-0.2,0.1-0.4,0.1-0.6v-11.9c0-0.5-0.4-1-1-1H223.8"/>
	<path class="st10" d="M217.4,149.8h12.9c0.5,0,0.9,0.5,0.6,1l-2.9,6c-0.2,0.3-0.5,0.6-0.9,0.6h-6c-0.4,0-0.7-0.2-0.9-0.5l-3.4-6
		C216.5,150.4,216.9,149.8,217.4,149.8z"/>
</g>
<rect x="137.3" y="188.6" class="st7" width="176.2" height="14.1"/>
<path class="st6" d="M312.5,188.6H138.3c-0.5,0-1-0.4-1-1v-6.2c0-0.5,0.5-1,1-1h174.3c0.5,0,1,0.5,1,1v6.2
	C313.5,188.1,313.1,188.6,312.5,188.6z"/>
<rect x="137.3" y="214.5" class="st7" width="176.2" height="14"/>
<line class="st9" x1="381.6" y1="236.3" x2="418.9" y2="219.4"/>
<g>
	<g id="XMLID_28_">
		<g>
			<path d="M381.3,176.8l45.7-27.1l-0.3-0.5l0.3-0.2c0.1,0.1,0.2,0.2,0.3,0.2c0.3,0,0.5,0.1,0.7,0.3c0.2,0.2,0.3,0.4,0.3,0.7
				l0.6,92.3c0,0.1,0,0.5-0.3,0.9c-0.4,0.4-1,0.6-1.9,0.6l-55,0c-0.4,0-0.8-0.2-0.9-0.6c-0.4-0.8-0.2-1.4,0.4-1.7
				c0.8-0.4,7.8-4.1,10-5.3c0.1-0.1,0.2-0.2,0.2-0.3s0-0.2-0.1-0.3l-28.4-41.1c-0.2-0.4-0.3-0.8-0.2-1.2c0.1-0.4,0.4-0.8,0.7-1
				l27.5-16.3c0,0,0,0,0.1-0.1l0,0L381.3,176.8z"/>
			<polygon points="426.7,149.2 426.9,149.7 381.3,176.8 380.9,176.2 426.6,149.2 			"/>
			<path d="M426.6,149.2l-45.7,27.1l0,0c0,0,0,0,0,0l23.5-23.8c0.4-0.4,0.8-0.9,1.1-1.4c0.7-1.2,1.9-3.9,1.9-8
				c0.1-6.1,0.1-40.9,0.1-41.7c0-0.3-0.2-3.9,1.1-5.2c0.4-0.4,0.8-0.6,1.4-0.5c0,0,0,0,0,0c0.2,0,0.4-0.3,0.4-0.6
				c0.2-2.7,0-8.6-0.1-11c0-0.3,0.1-0.5,0.3-0.7c0.2-0.2,0.5-0.3,0.7-0.3l12.1,0h0c0.3,0,0.5,0.1,0.7,0.3c0.2,0.2,0.3,0.4,0.3,0.7
				l0,11.4c0,0.2,0.1,0.4,0.3,0.4c0.8,0.2,2.2,1.2,1.9,5.5c0,5.9,0.1,43.3,0.1,47.5c0,0.1,0,0.2,0.1,0.2L426.6,149.2L426.6,149.2z"
				/>
		</g>
		<g>
		</g>
	</g>
</g>
<path class="st10" d="M363.9,198.7c-0.3-0.4-0.5-0.7-0.8-1.1c-0.6-0.8-1.8-2.7,1.1-4.4c3.4-2,44.9-25.9,49.4-28.5
	c0.4-0.2,0.8-0.3,1.2-0.4c0.9-0.1,2.4,0.2,2.4,2.7c0,3.6,0,37.5,0,37.5s-0.4,11.2-12.5,16.6c-10.1,4.5-15.7,7.1-17.2,7.9
	c-0.2,0.1-0.4,0.2-0.5,0.3c-0.4,0.2-1.7,0.5-4-2.8C380.6,223,366.7,202.8,363.9,198.7z"/>
<g>
	<path class="st5" d="M423.7,96.9h-12.9c-1.6,0-3-1.3-3-3v-9.1c0-1.7,1.4-3,3-3h12.9c1.6,0,3,1.3,3,3v9.1
		C426.7,95.5,425.3,96.9,423.7,96.9z"/>
	<line class="st12" x1="426.7" y1="92.9" x2="407.7" y2="92.9"/>
</g>
<g>
	<g id="XMLID_29_">
		<g>
			<path class="st13" d="M694.1,149.5l0.3-0.5l-0.3-0.2c-0.2,0.2-0.3,0.2-0.3,0.2c0,0,0,0,0,0c-0.6,0-1,0.5-1,1l-0.6,92.3
				c0,0.1,0,0.5,0.3,0.9c0.4,0.4,1,0.6,1.9,0.6l55,0c0.4,0,0.8-0.2,0.9-0.6c0.4-0.8,0.2-1.4-0.4-1.7c-0.8-0.4-7.8-4.1-10-5.3
				c-0.1-0.1-0.2-0.2-0.2-0.3c0-0.1,0-0.2,0.1-0.3l28.4-41.1c0.2-0.4,0.3-0.8,0.2-1.2s-0.4-0.8-0.7-1l-27.5-16.3c0,0,0,0-0.1-0.1
				l0,0l-0.3,0.5L694.1,149.5z"/>
			<polygon class="st13" points="694.3,149 694.1,149.5 739.7,176.5 740,176 694.4,148.9 			"/>
			<path class="st13" d="M694.1,148.9l0.3,0.2l0-0.1L740,176l0,0c0,0,0,0,0,0l-23.5-23.8c-0.4-0.4-0.8-0.9-1.1-1.4
				c-0.7-1.2-1.9-3.9-1.9-8c-0.1-6.1-0.1-40.9-0.1-41.7c0-0.3,0.2-3.9-1.1-5.2c-0.4-0.4-0.8-0.6-1.4-0.5c0,0,0,0,0,0
				c-0.2,0-0.4-0.3-0.4-0.6c-0.2-2.7,0-8.6,0.1-11c0-0.3-0.1-0.5-0.3-0.7c-0.2-0.2-0.5-0.3-0.7-0.3l-12.1,0c-0.3,0-0.5,0.1-0.7,0.3
				c-0.2,0.2-0.3,0.4-0.3,0.7l0,11.4c0,0.2-0.1,0.4-0.3,0.4c-0.8,0.2-2.2,1.2-1.9,5.5c0,5.9-0.1,43.3-0.1,47.5
				C694.1,148.7,694.1,148.8,694.1,148.9z"/>
		</g>
		<g>
		</g>
	</g>
</g>
<path class="st10" d="M757.1,198.1c0.3-0.4,0.5-0.7,0.8-1.1c0.6-0.8,1.8-2.7-1.1-4.4c-3.4-2-44.9-25.9-49.4-28.5
	c-0.4-0.2-0.8-0.3-1.2-0.4c-0.9-0.1-2.4,0.2-2.4,2.7c0,3.6,0,37.5,0,37.5s0.4,11.2,12.5,16.6c10.1,4.5,15.7,7.1,17.2,7.9
	c0.2,0.1,0.4,0.2,0.5,0.3c0.4,0.2,1.7,0.5,4-2.8C740.4,222.4,754.3,202.2,757.1,198.1z"/>
<g>
	<path class="st5" d="M697.3,96.3h12.9c1.6,0,3-1.3,3-3v-9.1c0-1.7-1.4-3-3-3h-12.9c-1.7,0-3,1.3-3,3v9.1
		C694.3,94.9,695.6,96.3,697.3,96.3z"/>
	<line class="st5" x1="694.3" y1="92.3" x2="713.2" y2="92.3"/>
</g>
<path class="st6" d="M312.5,214.5H138.3c-0.5,0-1-0.5-1-1v-6.2c0-0.6,0.5-1,1-1h174.3c0.5,0,1,0.4,1,1v6.2
	C313.5,214,313.1,214.5,312.5,214.5z"/>
<line class="st9" x1="553.8" y1="203.1" x2="572.5" y2="203.1"/>
<line class="st9" x1="553.8" y1="210.7" x2="572.5" y2="210.7"/>
<line class="st9" x1="553.8" y1="217.4" x2="572.5" y2="217.4"/>
<line class="st9" x1="553.8" y1="224.6" x2="572.5" y2="224.6"/>
<g>
	<rect x="595.6" y="195.3" class="st14" width="66" height="48.8"/>
</g>
<rect x="614.3" y="195.3" class="st5" width="28.6" height="48.8"/>
<g>
	
		<rect x="598.4" y="135.5" transform="matrix(-3.599180e-03 1 -1 -3.599180e-03 796.2681 -468.1648)" class="st14" width="66" height="54.2"/>
</g>
<rect x="617.1" y="135" transform="matrix(-3.599180e-03 1 -1 -3.599180e-03 795.7681 -468.6666)" class="st5" width="28.6" height="54.2"/>
<g>
	<rect x="465.8" y="63.7" class="st1" width="120.5" height="80.4"/>
	<rect x="555.2" y="64.7" class="st15" width="30.2" height="22.8"/>
	<rect x="512.7" y="64.2" class="st16" width="28.6" height="78.3"/>
	<rect x="470.8" y="64.2" class="st17" width="115.5" height="4.5"/>
	<rect x="460.6" y="44.1" class="st1" width="129.7" height="20.1"/>
</g>
<g>
	<path class="st6" d="M487.4,23.5c13.7-1.2,54.3-1.9,60.9-3.1c0-5.9,5.9-11.4,9-13.7c15.4-10,28.8,5.9,28.8,5.9l-15.2,2.5
		c-1.5,0.3-2.6,1.6-2.5,3.2l0.4,5.7l0.6,5c0.2,1.8,1.9,3.1,3.7,2.9l15.6-2c0,0-0.3,0.8-0.8,2.1c-3.6,8-11.8,13.1-20.5,12.4
		c-6.2-0.5-12.6-3.6-17.2-12.3c-3.2,0.5-43.1,8.8-57.2,11.8c-2.9,0.6-5.9,0.7-8.8,0.1c-2.5-0.5-5.1-1.6-6.8-4.3
		c-1.5-2.3-1.9-5.3-1-8C477.1,28.3,480,24.1,487.4,23.5z"/>
	
		<ellipse transform="matrix(0.6134 -0.7898 0.7898 0.6134 161.4436 396.3521)" class="st10" cx="485.5" cy="33.3" rx="4.2" ry="4.2"/>
</g>
<polyline class="st16" points="724.2,171.8 724.4,188.6 761.2,223.2 761.4,244 779.5,243.9 779.4,223.1 814.5,187.3 814.3,170.9 
	724.2,171.8 "/>
<path class="st10" d="M791.2,196.3c-0.1,0.1-0.2,0.2-0.3,0.4c-0.1,0.3-0.1,0.8,0.8,0.6c1.6-0.5,13.4-7.1,16.4-11.4
	c1-1.7,2-3.1,0.3-5c-0.2-0.3-0.5-0.5-0.8-0.6c-0.3-0.2-0.7-0.3-1.3,0.1c-0.2,0.1-0.4,0.3-0.6,0.5c-0.2,0.2-0.3,0.5-0.3,1
	c0,0.4,0,0.7-0.1,1.1c-0.3,1.1-1.1,3.3-3.9,5.7c-3.4,2.8-6,5-7.6,5.9C792.6,195.3,791.6,196,791.2,196.3z"/>
<g>
	<rect x="457.7" y="163.6" class="st1" width="120.5" height="80.4"/>
	<rect x="547.3" y="164.1" class="st15" width="30.2" height="22.8"/>
	<rect x="506.2" y="161.6" class="st16" width="28.6" height="81.4"/>
	<rect x="462.7" y="163.9" class="st17" width="115.5" height="4.5"/>
	<rect x="452.5" y="144" class="st1" width="129.7" height="20.1"/>
</g>
<rect x="844.5" y="39.4" class="st18" width="60" height="24.6"/>
<rect x="844.5" y="91.8" class="st1" width="60" height="24.6"/>
</svg>
