<?xml version="1.0" encoding="utf-8"?>
<!-- Generator: Adobe Illustrator 19.2.0, SVG Export Plug-In . SVG Version: 6.00 Build 0)  -->
<svg version="1.1" id="Layer_1" xmlns="http://www.w3.org/2000/svg" xmlns:xlink="http://www.w3.org/1999/xlink" x="0px" y="0px"
	 viewBox="0 0 248 248" style="enable-background:new 0 0 248 248;" xml:space="preserve">
<style type="text/css">
	.st0{fill:#EFEFEF;}
	.st1{fill:#FFE4B0;}
	.st2{fill:url(#SVGID_1_);}
	.st3{fill:#F8CF99;}
	.st4{clip-path:url(#XMLID_2_);fill:#FFFFFF;}
	.st5{fill:#8C56A3;}
	.st6{fill:#010101;}
	.st7{fill:#F4CF97;}
	.st8{fill:#231F20;}
	.st9{clip-path:url(#XMLID_3_);fill:#E6E7E8;}
	.st10{fill:#939598;}
</style>
<g>
	<circle id="XMLID_35_" class="st0" cx="124.2" cy="124.2" r="123.9"/>
</g>
<g>
	<path class="st1" d="M126.4,157.5h2.8c10.2-0.2,16.7-5.5,19.4-8.3c1.2-1.2,2.5-2.2,3.9-3.2c17.7-11.9,18.5-42.5,18.5-42.5v-8.3
		c0,0,1.3-27.5-4.8-29.8c-1.6-1-1.3-5.1-1.3-5.1s-1.5-19.3-21.4-19.5h-17.3"/>
	<path class="st1" d="M129.6,157.5h-2.8c-10.2-0.2-16.7-5.5-19.4-8.3c-1.2-1.2-2.5-2.2-3.9-3.2C85.8,134.1,85,103.5,85,103.5v-8.3
		c0,0-1.3-27.5,4.8-29.8c1.6-1,1.3-5.1,1.3-5.1s1.5-19.3,21.4-19.5h17.3"/>
</g>
<linearGradient id="SVGID_1_" gradientUnits="userSpaceOnUse" x1="119.2334" y1="96.2742" x2="136.6503" y2="96.2742">
	<stop  offset="0" style="stop-color:#F6CB98"/>
	<stop  offset="0.3888" style="stop-color:#F6CB98"/>
	<stop  offset="1" style="stop-color:#F7CC90"/>
</linearGradient>
<path class="st2" d="M119.2,106.1l8.9,1.1l-0.4-25.3h6.6l2.3,25.3c0,0-3.3,3.2-5.1,3.4c-1.8,0.2-7.1,0-7.1,0L119.2,106.1z"/>
<path class="st1" d="M100.3,143.1l-1,31.5l27.3,21.2l26.1-20.8v-30.6C152.8,144.4,127.8,167.3,100.3,143.1z"/>
<path class="st3" d="M112.2,151.1l18.1,15.3c3.2,2.7,7.5,3.8,11.7,2.9l10.8-2.4v-22.4C152.8,144.5,137.6,160.5,112.2,151.1z"/>
<g>
	<defs>
		<path id="XMLID_34_" d="M122.5,231.8c-43.7,0.3-71.7-21.1-80.4-28.9c-1.9-1.7-2.6-4.3-1.8-6.7c1-2.8,2.6-7.2,5.2-13.6
			c0.1-0.3,0.3-0.6,0.4-0.8c7.6-12,51.7-24.6,51.7-24.6s1-0.2,0.8-1.3c-0.2-0.7-0.2-2.8-0.1-4.5c0-1.4,1.2-2.5,2.6-2.5l0,0
			c0,0-0.5,5.4,3.4,8.6v0c1.1,0.9,2,2.1,2.4,3.5l0.3,0.9c1,3,1.5,6.2,1.5,9.4v0c0,1.1,0.4,2.2,1.2,3l12.5,14
			c0.3,0.3,0.5,0.5,0.8,0.8l2.9,2.6l2.9-2.2c0.7-0.6,1.4-1.2,2.1-1.9l12-13.3c0.7-0.8,1.2-1.9,1.2-3v0c0-3.2,0.5-6.4,1.5-9.4
			l0.3-0.9c0.4-1.4,1.3-2.6,2.4-3.5l0,0c3.8-3.2,3.4-8.6,3.4-8.6l0,0c1.4,0,2.5,1.1,2.6,2.5c0.1,1.7,0.1,3.7-0.1,4.5
			c-0.2,1,0.8,1.3,0.8,1.3s44.1,12.6,51.7,24.6c0.2,0.3,0.3,0.5,0.4,0.8c2.6,6.4,4.3,10.8,5.2,13.6c0.8,2.4,0.1,5-1.8,6.7
			c-8.8,7.9-36.7,29.3-80.4,28.9"/>
	</defs>
	<use xlink:href="#XMLID_34_"  style="overflow:visible;fill:#8C56A3;"/>
	<clipPath id="XMLID_2_">
		<use xlink:href="#XMLID_34_"  style="overflow:visible;"/>
	</clipPath>
	<rect x="156.2" y="212.8" class="st4" width="26.2" height="17.1"/>
</g>
<rect x="118.1" y="191.7" class="st5" width="15.2" height="40.2"/>
<path class="st6" d="M146,186.1l2.1-7.7c0,0,0.7-1.7,2.2,1.5c1.5,3.2,1.8,4.3,1.8,4.3l1.4-2.1l1.2-7.8l-1.6,7.4l-4.9-10.3L146,186.1
	z"/>
<path class="st6" d="M105.9,186.1l-2.1-7.7c0,0-0.7-1.7-2.2,1.5c-1.5,3.2-1.8,4.3-1.8,4.3l-1.4-2.1l-1.2-7.8l1.6,7.4l4.9-10.3
	L105.9,186.1z"/>
<circle class="st6" cx="125.7" cy="199.4" r="2.4"/>
<circle class="st6" cx="125.7" cy="211.8" r="2.4"/>
<circle class="st6" cx="126.1" cy="223" r="2.4"/>
<rect x="154.8" y="209.4" class="st6" width="30" height="3.5"/>
<path class="st7" d="M92.2,63c0,0,4.4-14.7,24.3-14.7c16.5,0,30.7-2.2,40.6,1.6c1.9,1.7,4.7,4.7,3.8,9.1c-0.2,1.1-0.3,2.3-0.2,3.4
	c0.2,3,0.4,5.6,0.4,5.6l3.9,19.2c0,0,0.5,1.8-1.8,6.1l-7,13.3c0,0-2.6,3.7-2.7,8.5c-0.8,5.3-4,18.7-12,25.8c-8,7-20.8,16-20.8,16
	s6.2,1.6,12.6,0.4c8.9-1.8,10.3-2.7,15.8-8c2.2-2,3.9-3.2,3.9-3.2s9.9-6.9,13.3-17.7c3.2-8,4.9-18.3,5.2-22.9l0.1-33.4l-4.8-31.3
	l-25.3-11l-22.9-1.4l-12,2.6l-16,11.2L92.2,63z"/>
<path class="st7" d="M171.5,79.8l-0.5,23.8c0,0,7-3.1,7.6-12.9C178.4,85.1,177,78.3,171.5,79.8z"/>
<path class="st8" d="M126.4,41.2c0,0,0,0-14.8,0c-17.7,0-19.5,19.5-19.5,19.5c0,0.8-0.1,1.5-0.3,2.2c-0.3,1.4-0.9,2.6-2,3.5
	c-1.4,1.3-3.9,5.2-3.8,16.5c0.1,16-1.1,9.8-1.1,9.8L82,58.1c0,0-3.1-23.5,22.2-32.9c0,0,11.1-4.3,16.9-6.5c1.9-0.7,3.6-2,4.9-3.6
	c1.7-2.2,4.1-5.1,5.1-4.8c1.6,0.4,1.6,0.6,4.4,3.8c1.4,1.5,2.8,3,4,4.2c1.4,1.3,2.9,2.4,4.7,3.3c4.1,2,8.1,3.6,8.1,3.6
	c25.3,9.4,22.2,32.9,22.2,32.9l-2.9,34.8c0,0-1.2,6.2-1.1-9.8c0.1-11.3-2.4-15.2-3.8-16.5c-1-0.9-1.7-2.2-2-3.5
	c-0.2-0.7-0.3-1.4-0.3-2.2c0,0-1.9-19.5-19.5-19.5c-14.8,0-14.8,0-14.8,0H126.4z"/>
<g>
	<g>
		<defs>
			<path id="XMLID_39_" d="M128.1,75.8h-6.6c-0.6,0-1.2-0.3-1.5-0.8h0c-0.9-1.4-2.5-2.3-4.3-2.3H86.2c-1.2,0-2.2,0.9-2.4,2
				c-1,5.1-2.1,18.3,10.9,20.9l17.1,3.9c1,0.2,2,0.3,3,0c1.5-0.3,3.5-1.2,5.2-3.5c0.7-1,1.2-2.2,1.4-3.4c0.6-3.3,2.5-11.4,6.7-11.4
				c4.9,0,6.3,3,6.8,10.5c0.2,2.5,1.3,4.8,3.2,6.3c1.2,0.9,2.3,1.3,3.3,1.5c1,0.2,2,0.2,3,0l17.1-3.9c13-2.6,11.9-15.8,10.9-20.9
				c-0.2-1.2-1.2-2-2.4-2h-29.5c-1.7,0-3.3,0.9-4.3,2.3l0,0c-0.3,0.5-0.9,0.8-1.5,0.8H128.1"/>
		</defs>
		<use xlink:href="#XMLID_39_"  style="overflow:visible;fill:#C2B59B;"/>
		<clipPath id="XMLID_3_">
			<use xlink:href="#XMLID_39_"  style="overflow:visible;"/>
		</clipPath>
		<polygon class="st9" points="137.1,97.5 181.5,71.9 192,118.2 144.2,134.1 		"/>
		<rect x="129.2" y="85.7" transform="matrix(0.866 -0.5 0.5 0.866 -22.6187 88.1351)" class="st9" width="47.8" height="1.1"/>
	</g>
	<path class="st10" d="M128.1,86.3"/>
	<path class="st10" d="M128.1,86.3"/>
</g>
<path class="st8" d="M128,121.1c1.7-0.3,3.7,2,5.1,3.3c2.5,3,7.3,2.4,9,2.1c0.1,0,0.3-0.1,0.4-0.1c4.2-1.7,5-5.7,5-6.3
	c0.7-3.8-1.4-6.5-2.5-7.5c-0.3-0.3-0.6-0.4-1-0.3c-0.3,0.1-0.5,0.4-0.6,0.7c-0.2,0.5-0.1,1.1,0.2,1.5c0,0,0,0.1,0.1,0.1
	c0.5,0.7,0.5,1.6,0.1,2.4c-1.1,2.5-3.3,1.1-4.1,0.4c-6.4-5.2-9.1-0.7-11.8,0.5c0,0-0.1,0-0.1,0c-2.6-1.3-5.4-5.7-11.8-0.5
	c-0.7,0.7-3,2-4.1-0.4c-0.3-0.8-0.3-1.7,0.1-2.4c0,0,0-0.1,0.1-0.1c0.3-0.4,0.4-1,0.2-1.5c-0.1-0.3-0.3-0.6-0.6-0.7
	c-0.3-0.1-0.7,0-1,0.3c-1.1,1.1-3.2,3.8-2.5,7.5c0,0.6,0.8,4.7,5,6.3c0.1,0.1,0.3,0.1,0.4,0.1c1.7,0.3,6.5,0.9,9-2.1
	c1.3-1.3,3.3-3.6,5.1-3.3H128z"/>
<g>
	<path class="st8" d="M128.5,131.1c0,0-5-0.1-5.6,5c0,0.2,0,0.4,0,0.6c0,0.9,0,2.3,1.5,3.9c1.6,1.5,4.1,4.1,4.1,4.1"/>
	<path class="st8" d="M128.5,131.1c0,0,5-0.1,5.6,5c0,0.2,0,0.4,0,0.6c0,0.9,0,2.3-1.5,3.9c-1.6,1.5-4.1,4.1-4.1,4.1"/>
</g>
</svg>
